<?xml version="1.0" encoding="iso-8859-1"?>
<!-- Uploaded to: SVG Repo, www.svgrepo.com, Generator: SVG Repo Mixer Tools -->
<svg fill="#000000" height="800px" width="800px" version="1.1" id="Layer_1" xmlns="http://www.w3.org/2000/svg" xmlns:xlink="http://www.w3.org/1999/xlink" 
	 viewBox="0 0 512 512" xml:space="preserve">
<g>
	<g>
		<path d="M373.615,20.112c-32.558,0-59.047,26.488-59.047,59.047c0,15.56,3.756,30.495,9.504,44.25l1.447,3.237
			c13.288,29.725,35.493,53.603,48.092,65.637c11.952-11.426,32.577-33.545,46.014-61.181c0.162-0.334,0.325-0.666,0.484-1.002
			c0.199-0.417,0.395-0.833,0.592-1.253c0.235-0.505,0.467-1.011,0.697-1.519c6.732-14.838,11.266-31.147,11.266-48.169
			C432.663,46.601,406.175,20.112,373.615,20.112z M373.615,108.477c-16.164,0-29.314-13.151-29.314-29.314
			s13.151-29.314,29.314-29.314s29.314,13.151,29.314,29.314C402.929,95.326,389.778,108.477,373.615,108.477z"/>
	</g>
</g>
<g>
	<g>
		<polygon points="335.941,271.754 240.57,367.124 365.334,491.888 512,491.888 512,447.813 		"/>
	</g>
</g>
<g>
	<g>
		<path d="M0,327.774v26.86c72.375,7.147,130.107,64.879,137.255,137.254h26.86C156.805,404.751,87.138,335.082,0,327.774z"/>
	</g>
</g>
<g>
	<g>
		<path d="M0,169.455v127.889c103.876,7.44,187.103,90.669,194.544,194.544h127.889L0,169.455z"/>
	</g>
</g>
<g>
	<g>
		<polygon points="375.906,231.789 357.391,250.303 512,404.913 512,367.883 		"/>
	</g>
</g>
<g>
	<g>
		<path d="M0,385.156v106.732h106.732C99.851,436.257,55.631,392.037,0,385.156z"/>
	</g>
</g>
<g>
	<g>
		<path d="M302.128,148.004H175.122L98.286,224.84L219.12,345.674l132.45-132.45C338.248,200.39,317.153,177.37,302.128,148.004z"/>
	</g>
</g>
<g>
	<g>
		<polygon points="21.45,148.004 76.835,203.389 132.221,148.004 		"/>
	</g>
</g>
<g>
	<g>
		<path d="M445.102,148.004c-14.182,27.717-33.767,49.773-47.123,62.955L512,324.981V148.004H445.102z"/>
	</g>
</g>
</svg>