<?xml version="1.0" encoding="UTF-8"?>
<svg version="1.1" xmlns="http://www.w3.org/2000/svg" width="500" height="500">
<path d="M0 0 C4.52744752 1.01239882 7.3311241 3.97573598 10.18359375 7.48828125 C13.83017766 13.45835225 16.63214417 19.66190309 18.18359375 26.48828125 C22.23421231 26.24317385 22.23421231 26.24317385 26.18359375 25.48828125 C27.33367685 23.5215521 27.33367685 23.5215521 28.18359375 21.48828125 C31.12109375 20.61328125 31.12109375 20.61328125 34.18359375 20.48828125 C35.17359375 21.14828125 36.16359375 21.80828125 37.18359375 22.48828125 C37.18359375 23.14828125 37.18359375 23.80828125 37.18359375 24.48828125 C38.17359375 24.15828125 39.16359375 23.82828125 40.18359375 23.48828125 C40.18359375 24.14828125 40.18359375 24.80828125 40.18359375 25.48828125 C41.51390625 25.61203125 41.51390625 25.61203125 42.87109375 25.73828125 C46.6306009 26.58949041 48.40443807 27.86793447 51.18359375 30.48828125 C53.08672736 34.29454847 52.77226693 38.35058801 52.18359375 42.48828125 C49.32412017 49.87185053 44.64890978 55.8450999 39.18359375 61.48828125 C39.54710937 61.94976562 39.910625 62.41125 40.28515625 62.88671875 C53.29559333 79.76692685 53.29559333 79.76692685 52.18359375 90.48828125 C50.75830915 94.26109343 49.65611998 95.24315827 46.05859375 97.109375 C42.14980601 98.70330357 38.42630533 98.87054106 34.24609375 98.73828125 C33.54677734 98.72732422 32.84746094 98.71636719 32.12695312 98.70507812 C27.4144438 98.60406441 22.82978015 98.26264565 18.18359375 97.48828125 C16.42938994 101.54487756 16.13417331 104.77021222 16.30859375 109.11328125 C16.3976512 114.155303 16.3976512 114.155303 14.49609375 117.11328125 C11.97880033 118.61005031 10.04332815 118.94356994 7.18359375 119.48828125 C6.21421875 120.16890625 5.24484375 120.84953125 4.24609375 121.55078125 C0.73136539 123.77438491 -0.74389771 124.16703267 -4.81640625 123.48828125 C-14.98134635 117.99921359 -18.61271797 107.97307925 -21.81640625 97.48828125 C-22.95851562 97.648125 -24.100625 97.80796875 -25.27734375 97.97265625 C-29.6743111 98.51864691 -34.01363068 98.70642675 -38.44140625 98.73828125 C-39.16585937 98.75890625 -39.8903125 98.77953125 -40.63671875 98.80078125 C-45.42936751 98.83551059 -48.67417119 98.14718994 -52.81640625 95.48828125 C-55.74402179 92.40014371 -56.79921635 89.399346 -56.87890625 85.17578125 C-54.21637879 75.93524479 -49.47803655 69.33174265 -42.81640625 62.48828125 C-45.48245861 56.7544426 -49.47100686 53.66662683 -54.81640625 50.48828125 C-57.37464254 46.65092681 -56.96908335 44.67256005 -56.69140625 40.11328125 C-56.62695312 38.80617187 -56.5625 37.4990625 -56.49609375 36.15234375 C-55.73825372 32.06697626 -54.77755334 30.35509091 -51.81640625 27.48828125 C-42.42455905 22.2266919 -31.80849334 24.59468776 -21.81640625 26.48828125 C-21.65785156 25.87082031 -21.49929687 25.25335938 -21.3359375 24.6171875 C-18.47739192 14.24114084 -12.89271118 -0.44947067 0 0 Z M-11.87890625 12.11328125 C-14.58698951 16.83058757 -17.81640625 22.93130152 -17.81640625 28.48828125 C-15.61547113 29.52844922 -13.40802556 30.54505156 -11.19140625 31.55078125 C-10.57394531 31.84533203 -9.95648438 32.13988281 -9.3203125 32.44335938 C-3.61275761 34.99673919 -0.3086342 34.41301303 5.39453125 32.296875 C6.43867188 31.84441406 7.4828125 31.39195312 8.55859375 30.92578125 C10.14800781 30.24322266 10.14800781 30.24322266 11.76953125 29.546875 C12.56617188 29.19753906 13.3628125 28.84820312 14.18359375 28.48828125 C10.49416261 14.78370711 10.49416261 14.78370711 1.18359375 4.48828125 C-5.55124079 2.97637962 -8.03535485 7.22148856 -11.87890625 12.11328125 Z M-51.81640625 33.48828125 C-52.23412429 37.1562794 -52.23412429 37.1562794 -51.81640625 40.48828125 C-49.83640625 41.14828125 -47.85640625 41.80828125 -45.81640625 42.48828125 C-45.67203125 43.37515625 -45.52765625 44.26203125 -45.37890625 45.17578125 C-45.19328125 46.26890625 -45.00765625 47.36203125 -44.81640625 48.48828125 C-44.71328125 49.33390625 -44.61015625 50.17953125 -44.50390625 51.05078125 C-43.61891133 54.18849052 -41.95762041 56.07078139 -39.81640625 58.48828125 C-35.08513079 57.15761003 -32.11968521 54.29684182 -28.5859375 51.046875 C-26.81640625 49.48828125 -26.81640625 49.48828125 -24.81640625 48.48828125 C-24.34021813 45.61645538 -23.97473028 42.81707978 -23.69140625 39.92578125 C-23.60503906 39.11947266 -23.51867187 38.31316406 -23.4296875 37.48242188 C-23.21696997 35.48524061 -23.0156277 33.48685388 -22.81640625 31.48828125 C-28.13692443 29.73349293 -32.85179624 29.12315689 -38.44140625 29.11328125 C-39.17875 29.08878906 -39.91609375 29.06429687 -40.67578125 29.0390625 C-45.66785269 29.01222341 -48.4404397 29.74895235 -51.81640625 33.48828125 Z M37.18359375 29.48828125 C36.52359375 30.14828125 35.86359375 30.80828125 35.18359375 31.48828125 C32.12109375 31.67578125 32.12109375 31.67578125 29.18359375 31.48828125 C28.85359375 31.15828125 28.52359375 30.82828125 28.18359375 30.48828125 C23.5327066 30.18304163 23.5327066 30.18304163 19.18359375 31.48828125 C19.19022072 42.03282459 19.19022072 42.03282459 23.3671875 51.328125 C27.3884754 54.53679009 31.36821016 56.69872218 36.18359375 58.48828125 C44.71471108 48.70979585 44.71471108 48.70979585 48.62109375 36.67578125 C48.38777804 33.610549 48.38777804 33.610549 47.18359375 31.61328125 C43.89739563 29.76479481 40.94617337 29.66745171 37.18359375 29.48828125 Z M-18.81640625 32.48828125 C-19.15371467 33.9248537 -19.48610216 35.36258218 -19.81640625 36.80078125 C-20.00203125 37.60128906 -20.18765625 38.40179688 -20.37890625 39.2265625 C-20.91136448 41.59524063 -20.91136448 41.59524063 -20.81640625 44.48828125 C-15.84431063 42.72398926 -11.38202564 40.09436465 -6.81640625 37.48828125 C-9.50243485 35.69759552 -11.47906515 34.82772334 -14.50390625 33.86328125 C-15.31214844 33.60289062 -16.12039062 33.3425 -16.953125 33.07421875 C-17.56800781 32.88085938 -18.18289062 32.6875 -18.81640625 32.48828125 Z M8.62109375 34.48828125 C7.60917969 34.85953125 6.59726562 35.23078125 5.5546875 35.61328125 C4.77222656 35.90203125 3.98976562 36.19078125 3.18359375 36.48828125 C5.69991424 39.34812672 8.52244928 40.90296947 11.87109375 42.67578125 C13.62421875 43.60390625 15.37734375 44.53203125 17.18359375 45.48828125 C16.52359375 41.19828125 15.86359375 36.90828125 15.18359375 32.48828125 C12.97701281 32.48828125 10.65269012 33.74102741 8.62109375 34.48828125 Z M-10.19140625 43.30078125 C-10.86429688 43.65720703 -11.5371875 44.01363281 -12.23046875 44.38085938 C-17.29536751 47.03583386 -17.29536751 47.03583386 -21.81640625 50.48828125 C-23.63585276 57.16586742 -23.22604221 65.7507912 -21.81640625 72.48828125 C-19.09378334 76.39905467 -16.17090772 77.76435838 -11.81640625 79.48828125 C-10.57703662 80.30636318 -9.34626793 81.13779569 -8.12890625 81.98828125 C-3.99667669 83.85947954 -2.21302992 83.47294176 2.18359375 82.48828125 C4.74632217 81.36850763 7.1074488 80.00038855 9.49609375 78.55078125 C10.11548828 78.19048828 10.73488281 77.83019531 11.37304688 77.45898438 C13.90321568 75.96725619 16.09906751 74.57280749 18.18359375 72.48828125 C18.76637874 69.09767837 18.73925339 65.67294043 18.80859375 62.23828125 C18.89560547 60.82482422 18.89560547 60.82482422 18.984375 59.3828125 C19.11512221 54.06610496 19.11512221 54.06610496 16.56494141 49.59716797 C14.50979806 48.02587526 12.44864477 46.73481243 10.18359375 45.48828125 C8.64058594 44.54855469 8.64058594 44.54855469 7.06640625 43.58984375 C6.15632813 43.10257813 5.24625 42.6153125 4.30859375 42.11328125 C3.38304687 41.61054688 2.4575 41.1078125 1.50390625 40.58984375 C-3.09448779 38.40676779 -6.07249779 41.07360632 -10.19140625 43.30078125 Z M-31.44140625 57.48828125 C-32.38886719 58.32359375 -32.38886719 58.32359375 -33.35546875 59.17578125 C-33.83757812 59.60890625 -34.3196875 60.04203125 -34.81640625 60.48828125 C-32.91825821 64.77974638 -30.5033971 66.66420315 -26.81640625 69.48828125 C-26.48640625 69.48828125 -26.15640625 69.48828125 -25.81640625 69.48828125 C-25.81640625 64.53828125 -25.81640625 59.58828125 -25.81640625 54.48828125 C-28.58682734 54.48828125 -29.39805581 55.67196975 -31.44140625 57.48828125 Z M22.18359375 54.48828125 C22.18359375 59.43828125 22.18359375 64.38828125 22.18359375 69.48828125 C27.1446513 66.29645654 27.1446513 66.29645654 31.18359375 62.48828125 C30.0061479 58.9559437 29.22753734 58.6252005 26.12109375 56.80078125 C24.82171875 56.03765625 23.52234375 55.27453125 22.18359375 54.48828125 Z M-40.7421875 66.39453125 C-46.42276101 72.567855 -51.18507318 77.75328321 -52.31640625 86.23828125 C-51.72827929 90.0611065 -50.88499512 91.20875809 -47.81640625 93.48828125 C-39.83682676 96.14814108 -30.80360865 94.46741105 -22.81640625 92.48828125 C-22.59264161 81.31538425 -22.59264161 81.31538425 -27.80859375 71.91015625 C-33.97843642 65.57074392 -33.97843642 65.57074392 -40.7421875 66.39453125 Z M34.18359375 64.48828125 C33.5803125 65.03097656 32.97703125 65.57367188 32.35546875 66.1328125 C31.55625 66.84824219 30.75703125 67.56367188 29.93359375 68.30078125 C29.1446875 69.00847656 28.35578125 69.71617187 27.54296875 70.4453125 C25.18359375 72.48828125 25.18359375 72.48828125 22.96484375 73.70703125 C20.04518911 76.62668589 20.24712077 80.19464129 19.93359375 84.17578125 C19.85625 84.97306641 19.77890625 85.77035156 19.69921875 86.59179688 C19.5110509 88.55579882 19.34515491 90.52191181 19.18359375 92.48828125 C27.67587265 94.79127214 36.35347204 95.85681574 44.93359375 93.42578125 C47.45144131 91.59235559 47.45144131 91.59235559 48.24609375 88.30078125 C48.08643897 78.56183963 42.57445806 72.38847441 36.18359375 65.48828125 C35.52359375 65.15828125 34.86359375 64.82828125 34.18359375 64.48828125 Z M-20.81640625 78.48828125 C-20.67545561 80.11371205 -20.52848538 81.73862176 -20.37890625 83.36328125 C-20.29769531 84.26820313 -20.21648437 85.173125 -20.1328125 86.10546875 C-19.9465134 88.49938986 -19.9465134 88.49938986 -18.81640625 90.48828125 C-15.01006055 89.81657319 -11.46433809 88.76081561 -7.81640625 87.48828125 C-7.81640625 86.82828125 -7.81640625 86.16828125 -7.81640625 85.48828125 C-9.74582488 84.20200216 -11.73680592 83.00716778 -13.75390625 81.86328125 C-14.85605469 81.23164063 -15.95820313 80.6 -17.09375 79.94921875 C-19.44829069 78.4094783 -19.44829069 78.4094783 -20.81640625 78.48828125 Z M9.62109375 81.98828125 C9.00556641 82.32214844 8.39003906 82.65601563 7.75585938 83 C6.23076266 83.82757186 4.70704873 84.65769105 3.18359375 85.48828125 C4.46624102 88.05357579 5.41131724 88.15327988 8.05859375 89.11328125 C8.75726563 89.37367188 9.4559375 89.6340625 10.17578125 89.90234375 C12.31497907 90.62835297 12.31497907 90.62835297 15.18359375 90.48828125 C15.84359375 86.52828125 16.50359375 82.56828125 17.18359375 78.48828125 C14.67336208 78.48828125 11.8404379 80.77687949 9.62109375 81.98828125 Z M-11.69140625 91.98828125 C-13.42003906 92.684375 -13.42003906 92.684375 -15.18359375 93.39453125 C-16.05242187 93.75546875 -16.92125 94.11640625 -17.81640625 94.48828125 C-16.40334579 103.10795003 -13.30756844 111.58875917 -6.81640625 117.73828125 C-3.92718433 119.77239156 -3.92718433 119.77239156 -0.56640625 119.42578125 C2.2873771 118.67857713 2.2873771 118.67857713 4.18359375 116.48828125 C4.26609375 115.37453125 4.34859375 114.26078125 4.43359375 113.11328125 C4.68109375 111.91703125 4.92859375 110.72078125 5.18359375 109.48828125 C6.60671875 108.59109375 6.60671875 108.59109375 8.05859375 107.67578125 C12.5602333 104.52463356 13.05306941 100.68472648 14.18359375 95.48828125 C4.68878541 90.63485565 -1.1743045 87.69558666 -11.69140625 91.98828125 Z " fill="#4F789D" transform="translate(251.81640625,155.51171875)"/>
<path d="M0 0 C5.82681177 0.25389158 9.74415528 0.61116013 14 5 C15.90313361 8.80626722 15.58867318 12.86230676 15 17 C12.14052642 24.38356928 7.46531603 30.35681865 2 36 C2.36351562 36.46148437 2.72703125 36.92296875 3.1015625 37.3984375 C16.11199958 54.2786456 16.11199958 54.2786456 15 65 C13.57985819 68.75919892 12.47963184 69.75051896 8.8984375 71.61328125 C4.8068101 73.2822415 1.06288654 73.44799069 -3.3125 73.375 C-4.02728516 73.38660156 -4.74207031 73.39820313 -5.47851562 73.41015625 C-7.55078125 73.3984375 -7.55078125 73.3984375 -11 73 C-11.66 72.01 -12.32 71.02 -13 70 C-10.80925225 67.80925225 -5.25826117 68.59778317 -2.16601562 68.48242188 C2.21508413 68.26801902 5.86340617 67.60903729 10 66 C10.70986846 54.64210467 5.22547796 48.24037737 -2 40 C-3.29315061 40.95632999 -4.58446853 41.91513851 -5.875 42.875 C-6.59429687 43.40867188 -7.31359375 43.94234375 -8.0546875 44.4921875 C-10.08252632 45.99873162 -10.08252632 45.99873162 -12 48 C-15.625 48.125 -15.625 48.125 -19 48 C-19.01458252 47.35973877 -19.02916504 46.71947754 -19.04418945 46.05981445 C-19.11891382 43.14345169 -19.21549293 40.22820313 -19.3125 37.3125 C-19.34633789 35.80139648 -19.34633789 35.80139648 -19.38085938 34.25976562 C-19.5861098 27.13974475 -19.5861098 27.13974475 -23 21 C-22.01 20.67 -21.02 20.34 -20 20 C-20 16.37 -20 12.74 -20 9 C-19.34 9.33 -18.68 9.66 -18 10 C-18 11.65 -18 13.3 -18 15 C-17.34 15.33 -16.68 15.66 -16 16 C-15.979375 17.03125 -15.95875 18.0625 -15.9375 19.125 C-14.56282643 24.80698408 -10.85252945 27.03369571 -6 30 C-4.35020338 30.70738486 -2.68706814 31.38679261 -1 32 C0.4654862 30.10934188 1.92234703 28.21298003 3.375 26.3125 C3.7875 25.78205078 4.2 25.25160156 4.625 24.70507812 C8.73739865 19.29926377 10.89403004 14.89680316 10 8 C7.59141286 6.1375562 7.59141286 6.1375562 5 5 C5 4.34 5 3.68 5 3 C3.35 3 1.7 3 0 3 C0 2.01 0 1.02 0 0 Z M-15 29 C-15 33.95 -15 38.9 -15 44 C-10.03894245 40.80817529 -10.03894245 40.80817529 -6 37 C-7.17744585 33.46766245 -7.95605641 33.13691925 -11.0625 31.3125 C-12.361875 30.549375 -13.66125 29.78625 -15 29 Z " fill="#50799F" transform="translate(289,181)"/>
<path d="M0 0 C1.01610352 -0.04350586 1.01610352 -0.04350586 2.05273438 -0.08789062 C5.20436886 -0.12794072 7.38870955 0.14534781 10.15234375 1.69140625 C12.57679401 5.83086203 12.10854086 9.8654548 11.9375 14.5625 C11.91945313 15.49835938 11.90140625 16.43421875 11.8828125 17.3984375 C11.83575673 19.70417015 11.77003713 22.00780945 11.6875 24.3125 C11.0275 24.3125 10.3675 24.3125 9.6875 24.3125 C9.0275 25.6325 8.3675 26.9525 7.6875 28.3125 C5.20826199 28.33935095 2.7293116 28.35926547 0.25 28.375 C-0.45705078 28.38337891 -1.16410156 28.39175781 -1.89257812 28.40039062 C-3.69943559 28.40903588 -5.50637603 28.36470011 -7.3125 28.3125 C-9.08699594 26.53800406 -8.44280072 23.96232739 -8.4453125 21.5625 C-8.44660156 20.3971875 -8.44789063 19.231875 -8.44921875 18.03125 C-8.44535156 16.8040625 -8.44148438 15.576875 -8.4375 14.3125 C-8.44136719 13.0853125 -8.44523437 11.858125 -8.44921875 10.59375 C-8.44792969 9.4284375 -8.44664062 8.263125 -8.4453125 7.0625 C-8.44418457 5.98484375 -8.44305664 4.9071875 -8.44189453 3.796875 C-8.17771592 -1.2753544 -4.10101834 0.05754469 0 0 Z M0.6875 4.3125 C0.6875 10.9125 0.6875 17.5125 0.6875 24.3125 C1.3475 23.9825 2.0075 23.6525 2.6875 23.3125 C2.6875 17.3725 2.6875 11.4325 2.6875 5.3125 C2.0275 4.9825 1.3675 4.6525 0.6875 4.3125 Z " fill="#628CB3" transform="translate(266.3125,287.6875)"/>
<path d="M0 0 C4.10097741 1.9344233 5.67585779 3.43536518 7.9375 7.375 C9.37691195 12.28593489 8.85051493 15.07515043 6.8125 19.6875 C4.42307984 22.73607055 2.68681027 23.77106324 -1 25 C-5.859563 25.29140237 -9.03764877 24.73712009 -12.9375 21.75 C-17.1529219 16.12943747 -17.1529219 16.12943747 -16.84375 11.82421875 C-16.13954843 7.6870345 -15.5235031 5.5235031 -12.5 2.5 C-8.27511167 -0.034933 -4.90868774 -0.63986619 0 0 Z " fill="#E85635" transform="translate(254,205)"/>
<path d="M0 0 C1.01610352 -0.04350586 1.01610352 -0.04350586 2.05273438 -0.08789062 C5.42499725 -0.13074441 7.36132884 0.08454203 10.15234375 2.03515625 C11.92580673 4.66601863 12.12169132 5.93124749 11.9375 9.0625 C11.90140625 9.86171875 11.8653125 10.6609375 11.828125 11.484375 C11.75851562 12.38929688 11.75851562 12.38929688 11.6875 13.3125 C11.0275 13.3125 10.3675 13.3125 9.6875 13.3125 C10.01363281 13.86550781 10.33976562 14.41851562 10.67578125 14.98828125 C11.84542287 17.67529578 11.92240187 19.5826304 11.875 22.5 C11.86855469 23.38042969 11.86210937 24.26085937 11.85546875 25.16796875 C11.6875 27.3125 11.6875 27.3125 10.6875 28.3125 C7.1875 28.4375 7.1875 28.4375 3.6875 28.3125 C3.3575 27.9825 3.0275 27.6525 2.6875 27.3125 C2.77687803 25.78730724 2.93287146 24.26568071 3.125 22.75 C3.22683594 21.92371094 3.32867187 21.09742188 3.43359375 20.24609375 C3.51738281 19.60800781 3.60117188 18.96992188 3.6875 18.3125 C3.0275 18.3125 2.3675 18.3125 1.6875 18.3125 C1.62691406 18.95058594 1.56632813 19.58867187 1.50390625 20.24609375 C1.42011719 21.07238281 1.33632812 21.89867187 1.25 22.75 C1.16878906 23.57371094 1.08757812 24.39742188 1.00390625 25.24609375 C0.6875 27.3125 0.6875 27.3125 -0.3125 28.3125 C-5.84191176 28.54779412 -5.84191176 28.54779412 -8.3125 27.3125 C-8.34136537 23.00001391 -8.35925255 18.68755238 -8.375 14.375 C-8.38337891 13.14330078 -8.39175781 11.91160156 -8.40039062 10.64257812 C-8.40361328 9.47275391 -8.40683594 8.30292969 -8.41015625 7.09765625 C-8.41539307 6.01363525 -8.42062988 4.92961426 -8.42602539 3.81274414 C-8.19476344 -1.28048949 -4.11032226 0.05767524 0 0 Z M0.6875 3.3125 C0.6875 6.6125 0.6875 9.9125 0.6875 13.3125 C1.3475 12.9825 2.0075 12.6525 2.6875 12.3125 C3.09479228 9.99093403 3.43188677 7.6556213 3.6875 5.3125 C3.0275 5.3125 2.3675 5.3125 1.6875 5.3125 C1.3575 4.6525 1.0275 3.9925 0.6875 3.3125 Z " fill="#6085A8" transform="translate(244.3125,287.6875)"/>
<path d="M0 0 C3.63 0 7.26 0 11 0 C11 0.66 11 1.32 11 2 C11.66 2 12.32 2 13 2 C13.02886751 6.14581887 13.04675327 10.29161216 13.0625 14.4375 C13.07087891 15.62150391 13.07925781 16.80550781 13.08789062 18.02539062 C13.09272461 19.71245117 13.09272461 19.71245117 13.09765625 21.43359375 C13.10551147 22.99678345 13.10551147 22.99678345 13.11352539 24.59155273 C13 27 13 27 12 28 C8.5 28.125 8.5 28.125 5 28 C2.95301586 25.95301586 3.29954307 21.69588759 3 19 C2.855625 20.299375 2.71125 21.59875 2.5625 22.9375 C2.125 26.875 2.125 26.875 1 28 C-2.5 28.125 -2.5 28.125 -6 28 C-8.31567998 25.68432002 -7.37463145 20.35440568 -7.4375 17.25 C-7.48326172 16.3425 -7.52902344 15.435 -7.57617188 14.5 C-7.68763364 7.87044787 -7.68763364 7.87044787 -5.66845703 5.31445312 C-4.03515625 3.984375 -4.03515625 3.984375 -1 2 C-0.67 1.34 -0.34 0.68 0 0 Z M3 4 C1.76732652 5.00836062 1.76732652 5.00836062 1.90234375 7.06640625 C1.91394531 7.89011719 1.92554688 8.71382813 1.9375 9.5625 C1.94652344 10.38878906 1.95554687 11.21507812 1.96484375 12.06640625 C1.97644531 12.70449219 1.98804688 13.34257812 2 14 C2.66 13.67 3.32 13.34 4 13 C4 10.03 4 7.06 4 4 C3.67 4 3.34 4 3 4 Z " fill="#0E4981" transform="translate(287,288)"/>
<path d="M0 0 C2 2 2 2 2.24291992 4.50610352 C2.23675659 6.05189087 2.23675659 6.05189087 2.23046875 7.62890625 C2.22853516 8.74587891 2.22660156 9.86285156 2.22460938 11.01367188 C2.20624023 12.7703418 2.20624023 12.7703418 2.1875 14.5625 C2.18685547 15.73748047 2.18621094 16.91246094 2.18554688 18.12304688 C2.14012141 26.85987859 2.14012141 26.85987859 1 28 C-1.33297433 28.04092937 -3.66705225 28.04241723 -6 28 C-6.33 25.03 -6.66 22.06 -7 19 C-8.38333333 20.18333333 -8.38333333 20.18333333 -8.5 23.5 C-9 27 -9 27 -10 28 C-13 28.125 -13 28.125 -16 28 C-19.01544152 24.98455848 -18.19018675 16.77774468 -18.3046875 12.7265625 C-18.21763156 8.52323887 -17.59075794 6.01890937 -14.6875 2.8125 C-10.17830756 -0.63102792 -5.49257198 -1.24552748 0 0 Z M-7 3 C-9.21370051 4.78657757 -9.21370051 4.78657757 -9.1953125 7.1640625 C-9.17210937 7.97617187 -9.14890625 8.78828125 -9.125 9.625 C-9.10695312 10.44226563 -9.08890625 11.25953125 -9.0703125 12.1015625 C-9.04710937 12.72804688 -9.02390625 13.35453125 -9 14 C-8.01 13.34 -7.02 12.68 -6 12 C-5.63637182 9.79274927 -5.63637182 9.79274927 -5.8125 7.375 C-5.85310547 6.14910156 -5.85310547 6.14910156 -5.89453125 4.8984375 C-5.92933594 4.27195312 -5.96414062 3.64546875 -6 3 C-6.33 3 -6.66 3 -7 3 Z " fill="#326291" transform="translate(232,288)"/>
<path d="M0 0 C1.07765625 0.03609375 2.1553125 0.0721875 3.265625 0.109375 C4.49539062 0.17898438 4.49539062 0.17898438 5.75 0.25 C5.75 0.91 5.75 1.57 5.75 2.25 C6.74 2.25 7.73 2.25 8.75 2.25 C8.75 4.56 8.75 6.87 8.75 9.25 C5.9375 9.5 5.9375 9.5 2.75 9.25 C0.875 7.25 0.875 7.25 -0.25 5.25 C-0.25 6.9 -0.25 8.55 -0.25 10.25 C1.3896875 10.8996875 1.3896875 10.8996875 3.0625 11.5625 C8.37695386 13.90774482 8.37695386 13.90774482 9.75 16.25 C9.98729308 18.96808433 9.88473014 21.5104872 9.75 24.25 C9.09 24.25 8.43 24.25 7.75 24.25 C7.75 24.91 7.75 25.57 7.75 26.25 C7.09 26.25 6.43 26.25 5.75 26.25 C5.75 26.91 5.75 27.57 5.75 28.25 C1.13 28.25 -3.49 28.25 -8.25 28.25 C-8.25 27.59 -8.25 26.93 -8.25 26.25 C-8.91 26.25 -9.57 26.25 -10.25 26.25 C-10.25 23.94 -10.25 21.63 -10.25 19.25 C-7.61 19.25 -4.97 19.25 -2.25 19.25 C-1.59 20.57 -0.93 21.89 -0.25 23.25 C-0.25 20.61 -0.25 17.97 -0.25 15.25 C-1.1575 15.3325 -2.065 15.415 -3 15.5 C-6.25 15.25 -6.25 15.25 -8.625 13.6875 C-10.87340519 10.31489221 -10.81783945 8.22487617 -10.25 4.25 C-7.19727018 0.15061995 -4.98976387 -0.21694626 0 0 Z " fill="#3A6793" transform="translate(203.25,287.75)"/>
<path d="M0 0 C1.828125 0.05859375 1.828125 0.05859375 4 1 C5.12629629 3.39782551 5.97100667 5.55649314 6.75 8.0625 C7.08064453 9.05733398 7.08064453 9.05733398 7.41796875 10.07226562 C7.95997407 11.71006432 8.48192502 13.35447496 9 15 C13.05061856 14.7548926 13.05061856 14.7548926 17 14 C18.1500831 12.03327085 18.1500831 12.03327085 19 10 C21.9375 9.125 21.9375 9.125 25 9 C25.99 9.66 26.98 10.32 28 11 C28 11.66 28 12.32 28 13 C28.99 12.67 29.98 12.34 31 12 C31 12.66 31 13.32 31 14 C32.32 14.33 33.64 14.66 35 15 C32.69 14.67 30.38 14.34 28 14 C28 14.99 28 15.98 28 17 C29.65 17 31.3 17 33 17 C33 17.33 33 17.66 33 18 C31.5459375 18.4640625 31.5459375 18.4640625 30.0625 18.9375 C27.15934208 19.69523342 27.15934208 19.69523342 26 21 C23 21.125 23 21.125 20 21 C19.67 20.67 19.34 20.34 19 20 C15.99668982 19.85806663 13.00782866 19.95763622 10 20 C10.33 22.97 10.66 25.94 11 29 C10.34 29.33 9.68 29.66 9 30 C9 28.02 9 26.04 9 24 C8.67 26.31 8.34 28.62 8 31 C7.67 31 7.34 31 7 31 C6.34 28.03 5.68 25.06 5 22 C3.741875 22.495 2.48375 22.99 1.1875 23.5 C-1.50941597 24.56108169 -3.04725901 25 -6 25 C-6 24.34 -6 23.68 -6 23 C-6.99 22.67 -7.98 22.34 -9 22 C-7.04350603 21.16235732 -5.08474444 20.33000941 -3.125 19.5 C-2.03445313 19.0359375 -0.94390625 18.571875 0.1796875 18.09375 C3 17 3 17 5 17 C4.6390625 16.10796875 4.278125 15.2159375 3.90625 14.296875 C3.4421875 13.12640625 2.978125 11.9559375 2.5 10.75 C2.0359375 9.58984375 1.571875 8.4296875 1.09375 7.234375 C0 4 0 4 0 0 Z " fill="#426C92" transform="translate(261,167)"/>
<path d="M0 0 C4.95 0 9.9 0 15 0 C15 0.99 15 1.98 15 3 C15.556875 2.505 16.11375 2.01 16.6875 1.5 C19.4411615 -0.28615881 20.77756457 -0.4957593 24 0 C25.8125 1.5 25.8125 1.5 27 3 C27 2.01 27 1.02 27 0 C31.875 0.875 31.875 0.875 33 2 C33.33 1.34 33.66 0.68 34 0 C34.99 0 35.98 0 37 0 C37 3.63 37 7.26 37 11 C35.68 11 34.36 11 33 11 C32.34 10.01 31.68 9.02 31 8 C31 8.99 31 9.98 31 11 C30.01 11.33 29.02 11.66 28 12 C27.34 11.34 26.68 10.68 26 10 C25.01 10.66 24.02 11.32 23 12 C19.875 11.75 19.875 11.75 17 11 C16.67 10.34 16.34 9.68 16 9 C15.01 10.485 15.01 10.485 14 12 C12.68 11.67 11.36 11.34 10 11 C10 8.69 10 6.38 10 4 C9.34 4 8.68 4 8 4 C8 6.31 8 8.62 8 11 C6.35 11.33 4.7 11.66 3 12 C2.02391783 9.07175348 1.91773332 7.04386724 2 4 C1.01 3.67 0.02 3.34 -1 3 C-0.67 2.01 -0.34 1.02 0 0 Z M20 3 C20 4.98 20 6.96 20 9 C20.66 9 21.32 9 22 9 C22.33 7.35 22.66 5.7 23 4 C22.01 3.67 21.02 3.34 20 3 Z " fill="#EBB5AA" transform="translate(312,329)"/>
<path d="M0 0 C0.33 0 0.66 0 1 0 C1 2.97 1 5.94 1 9 C2.093125 8.79375 3.18625 8.5875 4.3125 8.375 C8 8 8 8 11 10 C11.625 12.8125 11.625 12.8125 12 16 C12.55068513 19.85479588 13.46388043 22.02281615 16 25 C19.93673644 23.68775452 22.22719294 22.08089673 25 19 C25.66 19.33 26.32 19.66 27 20 C26.34 20.99 25.68 21.98 25 23 C25.66 23.33 26.32 23.66 27 24 C25.35 25.32 23.7 26.64 22 28 C23.65192612 32.20490286 25.01228669 32.80982935 29 36 C29 31.05 29 26.1 29 21 C29.66 20.67 30.32 20.34 31 20 C31.60565429 30.33938394 32.18615302 40.6374817 32 51 C31.67 51 31.34 51 31 51 C31.0928125 49.2984375 31.0928125 49.2984375 31.1875 47.5625 C30.81127307 44.10244574 30.04031901 43.04006503 27.51953125 40.53515625 C25.53109487 38.94800846 23.51418127 37.39579903 21.46875 35.8828125 C19 34 19 34 18 32 C18.33 31.67 18.66 31.34 19 31 C18.67 30.01 18.34 29.02 18 28 C16.9275 27.71125 15.855 27.4225 14.75 27.125 C10.46507233 25.8395217 8.99362775 24.22996678 6 21 C4.33675599 19.99431758 2.67063747 18.99335201 1 18 C-1.51005664 14.23491505 -1.0258295 11.60538391 -0.625 7.3125 C-0.56828125 6.61060547 -0.5115625 5.90871094 -0.453125 5.18554688 C-0.31195359 3.45619715 -0.15728041 1.72795912 0 0 Z " fill="#537CA2" transform="translate(196,188)"/>
<path d="M0 0 C6.625 -0.25 6.625 -0.25 10 2 C10.1875 5.625 10.1875 5.625 10 9 C10.33 6.03 10.66 3.06 11 0 C17.75 -0.125 17.75 -0.125 20 1 C20 1.66 20 2.32 20 3 C20.53625 2.484375 21.0725 1.96875 21.625 1.4375 C24 0 24 0 27.125 0.1875 C30 1 30 1 32 3 C32.375 5.9375 32.375 5.9375 32 9 C30.3125 10.9375 30.3125 10.9375 28 12 C25.4375 11.9375 25.4375 11.9375 23 11 C21.1875 8.9375 21.1875 8.9375 20 7 C18.68 7.33 17.36 7.66 16 8 C15.67 9.32 15.34 10.64 15 12 C10.38 12 5.76 12 1 12 C0.03929566 9.11788698 -0.10581883 7.30149956 -0.0625 4.3125 C-0.05347656 3.50425781 -0.04445313 2.69601562 -0.03515625 1.86328125 C-0.02355469 1.24839844 -0.01195312 0.63351562 0 0 Z M5 3 C6 5 6 5 6 5 Z M15 3 C15.66 3.66 16.32 4.32 17 5 C17 4.34 17 3.68 17 3 C16.34 3 15.68 3 15 3 Z M25 3 C25 4.65 25 6.3 25 8 C25.99 8 26.98 8 28 8 C27.67 6.35 27.34 4.7 27 3 C26.34 3 25.68 3 25 3 Z " fill="#EAB4AA" transform="translate(258,329)"/>
<path d="M0 0 C1.83614703 2.75422054 3.3008654 5.49798892 4.8125 8.4375 C7.88004372 14.17946018 7.88004372 14.17946018 13 18 C16.84640156 17.91383331 16.84640156 17.91383331 20 16 C20.12375 14.88625 20.2475 13.7725 20.375 12.625 C21 9 21 9 22.3125 7.125 C24.19619717 5.86920188 25.77888714 5.38295049 28 5 C28 5.66 28 6.32 28 7 C28.99 7 29.98 7 31 7 C31.33 6.34 31.66 5.68 32 5 C33.5906108 13.091368 33.5906108 13.091368 31.375 16.5 C28.80319351 18.12429883 26.96223969 18.43576387 24 19 C22.5459375 20.0209375 22.5459375 20.0209375 21.0625 21.0625 C17.54777164 23.28610366 16.07250854 23.67875142 12 23 C4.81551178 19.12037636 1.09239189 13.3388822 -2 6 C-2.75 3 -2.75 3 -3 1 C-2.01 0.67 -1.02 0.34 0 0 Z " fill="#547CA1" transform="translate(235,256)"/>
<path d="M0 0 C2.29109597 -0.08075665 4.58299267 -0.13907731 6.875 -0.1875 C8.78925781 -0.23970703 8.78925781 -0.23970703 10.7421875 -0.29296875 C11.81726563 -0.19628906 12.89234375 -0.09960938 14 0 C14.66 0.99 15.32 1.98 16 3 C16.66 2.01 17.32 1.02 18 0 C19.32 0 20.64 0 22 0 C22 1.65 22 3.3 22 5 C22.33 3.35 22.66 1.7 23 0 C24.65 0 26.3 0 28 0 C28 3.63 28 7.26 28 11 C24.23901142 11.75219772 21.43822711 12.1195218 17.69921875 12.09765625 C16.72275391 12.09443359 15.74628906 12.09121094 14.74023438 12.08789062 C13.73283203 12.07951172 12.72542969 12.07113281 11.6875 12.0625 C10.66076172 12.05798828 9.63402344 12.05347656 8.57617188 12.04882812 C6.05072118 12.03708184 3.52539095 12.02065565 1 12 C-0.26237731 9.47524538 -0.09856404 7.68799534 -0.0625 4.875 C-0.05347656 3.96492188 -0.04445312 3.05484375 -0.03515625 2.1171875 C-0.02355469 1.41851562 -0.01195312 0.71984375 0 0 Z M9 2 C10 4 10 4 10 4 Z M7 4 C7.34786708 5.97536745 7.34786708 5.97536745 8 8 C8.66 8.33 9.32 8.66 10 9 C9.67 7.35 9.34 5.7 9 4 C8.34 4 7.68 4 7 4 Z " fill="#E8ADA0" transform="translate(172,329)"/>
<path d="M0 0 C3.6196875 -0.0928125 3.6196875 -0.0928125 7.3125 -0.1875 C8.44619019 -0.22846802 8.44619019 -0.22846802 9.6027832 -0.27026367 C12.44609771 -0.30567659 14.51811577 -0.29830929 16.96875 1.21875 C18.30055824 3.51914605 18.30237367 5.04540568 18.1875 7.6875 C18.16042969 8.49574219 18.13335937 9.30398438 18.10546875 10.13671875 C18.05326172 11.05904297 18.05326172 11.05904297 18 12 C16.02 12 14.04 12 12 12 C10.64560332 9.29120665 10.93498549 6.99066732 11 4 C10.01 4 9.02 4 8 4 C8 3.34 8 2.68 8 2 C7.34 2 6.68 2 6 2 C6 5.63 6 9.26 6 13 C6.99 13 7.98 13 9 13 C9 13.66 9 14.32 9 15 C7.68 15 6.36 15 5 15 C5 18.3 5 21.6 5 25 C3.35 25 1.7 25 0 25 C0 16.75 0 8.5 0 0 Z " fill="#034380" transform="translate(238,289)"/>
<path d="M0 0 C2.31 0.33 4.62 0.66 7 1 C6.67 1.99 6.34 2.98 6 4 C6.66 4 7.32 4 8 4 C7.67 4.66 7.34 5.32 7 6 C6.08734375 6.19916016 6.08734375 6.19916016 5.15625 6.40234375 C0.36422668 7.7305676 -2.73862276 13.0582881 -5.33984375 17.0625 C-7.73670117 21.42972775 -8.69507756 24.93586348 -8 30 C-6.16884793 32.61593153 -5.09031634 32.96989455 -2 34 C-0.10787263 34.22179785 1.78884472 34.40614015 3.6875 34.5625 C4.68136719 34.64628906 5.67523438 34.73007813 6.69921875 34.81640625 C7.83810547 34.90728516 7.83810547 34.90728516 9 35 C9 35.33 9 35.66 9 36 C3.555 36.495 3.555 36.495 -2 37 C2.95 37.33 7.9 37.66 13 38 C13 38.33 13 38.66 13 39 C10.29105233 39.08144943 7.58458737 39.14070614 4.875 39.1875 C4.11445313 39.21263672 3.35390625 39.23777344 2.5703125 39.26367188 C-2.37738454 39.32765072 -5.73084996 38.77976236 -10 36 C-12.92761554 32.91186246 -13.9828101 29.91106475 -14.0625 25.6875 C-11.63613573 17.2665887 -7.69836834 11.14750638 -1.57421875 4.91015625 C0.3179919 3.02669043 0.3179919 3.02669043 0 0 Z " fill="#688BAD" transform="translate(209,215)"/>
<path d="M0 0 C0.33 1.32 0.66 2.64 1 4 C-2 4 -2 4 -4 3 C-4 4.98 -4 6.96 -4 9 C-1.00594421 8.53146378 -1.00594421 8.53146378 2 7 C3.46022435 3.47548841 3.46022435 3.47548841 4 0 C5.32 0 6.64 0 8 0 C9.32 2.97 10.64 5.94 12 9 C12 6.03 12 3.06 12 0 C13.65 0 15.3 0 17 0 C18.53445094 3.06890187 17.54984289 5.70094266 17 9 C18.32 8.67 19.64 8.34 21 8 C21 9.32 21 10.64 21 12 C18.70890403 12.08075665 16.41700733 12.13907731 14.125 12.1875 C12.84882813 12.22230469 11.57265625 12.25710938 10.2578125 12.29296875 C8.64519531 12.14794922 8.64519531 12.14794922 7 12 C6.34 11.01 5.68 10.02 5 9 C4.67 9.99 4.34 10.98 4 12 C-3.95467422 12.45892351 -3.95467422 12.45892351 -7.5625 10.875 C-9 9 -9 9 -9.4375 6 C-9 3 -9 3 -7.875 1.125 C-5.21965017 -0.4682099 -3.03210482 -0.20214032 0 0 Z " fill="#E19B8E" transform="translate(209,329)"/>
<path d="M0 0 C5.82681177 0.25389158 9.74415528 0.61116013 14 5 C15.90313361 8.80626722 15.58867318 12.86230676 15 17 C12.37245401 23.78469912 8.33156565 29.22399366 3.22265625 34.34375 C2.81917969 34.8903125 2.41570312 35.436875 2 36 C2.33 36.99 2.66 37.98 3 39 C0.69 38.67 -1.62 38.34 -4 38 C-4 36.02 -4 34.04 -4 32 C-3.01 32 -2.02 32 -1 32 C0.667044 30.13683317 2.11109096 28.33216054 3.5625 26.3125 C4.34753906 25.25675781 5.13257813 24.20101562 5.94140625 23.11328125 C9.27209543 18.07616688 10.79154164 14.10617837 10 8 C7.59141286 6.1375562 7.59141286 6.1375562 5 5 C5 4.34 5 3.68 5 3 C3.35 3 1.7 3 0 3 C0 2.01 0 1.02 0 0 Z " fill="#5980A4" transform="translate(289,181)"/>
<path d="M0 0 C1.09054688 0.02320313 2.18109375 0.04640625 3.3046875 0.0703125 C4.40039062 0.08835937 5.49609375 0.10640625 6.625 0.125 C7.46804687 0.14820313 8.31109375 0.17140625 9.1796875 0.1953125 C9.1796875 1.5153125 9.1796875 2.8353125 9.1796875 4.1953125 C9.8396875 4.1953125 10.4996875 4.1953125 11.1796875 4.1953125 C10.8496875 2.8753125 10.5196875 1.5553125 10.1796875 0.1953125 C11.8296875 0.1953125 13.4796875 0.1953125 15.1796875 0.1953125 C15.1796875 3.8253125 15.1796875 7.4553125 15.1796875 11.1953125 C13.13889745 11.3921246 11.09698743 11.57734081 9.0546875 11.7578125 C7.34925781 11.91443359 7.34925781 11.91443359 5.609375 12.07421875 C2.25674404 12.19259182 -0.56365524 11.98351795 -3.8203125 11.1953125 C-4.4803125 10.5353125 -5.1403125 9.8753125 -5.8203125 9.1953125 C-5.18917311 0.35936102 -5.18917311 0.35936102 0 0 Z M4.1796875 2.1953125 C3.8496875 2.8553125 3.5196875 3.5153125 3.1796875 4.1953125 C1.8596875 3.8653125 0.5396875 3.5353125 -0.8203125 3.1953125 C-2.15364583 6.1953125 -2.15364583 6.1953125 -0.8203125 9.1953125 C0.8296875 8.8653125 2.4796875 8.5353125 4.1796875 8.1953125 C4.5096875 8.8553125 4.8396875 9.5153125 5.1796875 10.1953125 C5.1796875 7.5553125 5.1796875 4.9153125 5.1796875 2.1953125 C4.8496875 2.1953125 4.5196875 2.1953125 4.1796875 2.1953125 Z " fill="#EBBBB1" transform="translate(155.8203125,328.8046875)"/>
<path d="M0 0 C0.66 0 1.32 0 2 0 C1.98428955 1.08941895 1.9685791 2.17883789 1.95239258 3.30126953 C1.89791022 7.36027575 1.86358361 11.4192499 1.83520508 15.47851562 C1.82016005 17.23215173 1.79971896 18.98575047 1.77368164 20.73925781 C1.73710879 23.26637009 1.7202308 25.79298296 1.70703125 28.3203125 C1.69154739 29.09867462 1.67606354 29.87703674 1.66011047 30.6789856 C1.65862218 35.5414689 2.42410691 38.72764214 5 43 C4.01 43 3.02 43 2 43 C2 46.3 2 49.6 2 53 C1.01 53 0.02 53 -1 53 C-1.66 41.45 -2.32 29.9 -3 18 C-3.66 18.66 -4.32 19.32 -5 20 C-5.99 20 -6.98 20 -8 20 C-7.25 17.625 -7.25 17.625 -6 15 C-5.34 14.7525 -4.68 14.505 -4 14.25 C-1.65816338 13.1010162 -1.65816338 13.1010162 -1.171875 9.9609375 C-1.03265625 8.77757812 -0.8934375 7.59421875 -0.75 6.375 C-0.60046875 5.18648437 -0.4509375 3.99796875 -0.296875 2.7734375 C-0.19890625 1.85820312 -0.1009375 0.94296875 0 0 Z " fill="#1C5282" transform="translate(229,191)"/>
<path d="M0 0 C3.3125 -0.3125 3.3125 -0.3125 7 0 C9 2.3125 9 2.3125 10 5 C9.67 5.99 9.34 6.98 9 8 C9.66 8 10.32 8 11 8 C11.66 5.36 12.32 2.72 13 0 C14.65 0.33 16.3 0.66 18 1 C18.99 4.3 19.98 7.6 21 11 C19.68 11.33 18.36 11.66 17 12 C16.67 11.01 16.34 10.02 16 9 C15.34 9 14.68 9 14 9 C14 9.66 14 10.32 14 11 C9.32798795 12.20568053 4.78503708 12.09382426 0 12 C-1.31157516 9.37684968 -0.89649988 7.76966564 -0.5625 4.875 C-0.46066406 3.96492188 -0.35882813 3.05484375 -0.25390625 2.1171875 C-0.17011719 1.41851562 -0.08632813 0.71984375 0 0 Z M4 3 C5 5 5 5 5 5 Z " fill="#DE816C" transform="translate(291,329)"/>
<path d="M0 0 C0.66 0.33 1.32 0.66 2 1 C2.94875 0.79375 3.8975 0.5875 4.875 0.375 C8 0 8 0 10.375 1.0625 C12 3 12 3 12.5 6 C12 9 12 9 10.375 10.9375 C7.22252502 12.34781775 5.30564248 11.79047972 2 11 C-0.09402728 10.88950467 -0.09402728 10.88950467 -2.3125 11.8125 C-5 12 -5 12 -7.8125 9.5625 C-8.534375 8.716875 -9.25625 7.87125 -10 7 C-9.39816251 4.97954558 -8.72693904 2.97888961 -8 1 C-5.26094655 -0.36952673 -3.02912668 -0.12621361 0 0 Z M-4 3 C-4.33 4.65 -4.66 6.3 -5 8 C-2.525 8.495 -2.525 8.495 0 9 C0.33 8.34 0.66 7.68 1 7 C-0.36323743 4.9600281 -0.36323743 4.9600281 -2 3 C-2.66 3 -3.32 3 -4 3 Z M5 3 C5 4.98 5 6.96 5 9 C5.99 8.67 6.98 8.34 8 8 C7.67 6.35 7.34 4.7 7 3 C6.34 3 5.68 3 5 3 Z " fill="#E5AAA0" transform="translate(246,329)"/>
<path d="M0 0 C1.75126074 0.08022791 3.50215533 0.17689136 5.25 0.3125 C5.25 0.9725 5.25 1.6325 5.25 2.3125 C5.91 2.3125 6.57 2.3125 7.25 2.3125 C7.27886751 6.45831887 7.29675327 10.60411216 7.3125 14.75 C7.32087891 15.93400391 7.32925781 17.11800781 7.33789062 18.33789062 C7.34272461 20.02495117 7.34272461 20.02495117 7.34765625 21.74609375 C7.35551147 23.30928345 7.35551147 23.30928345 7.36352539 24.90405273 C7.25 27.3125 7.25 27.3125 6.25 28.3125 C2.75 28.4375 2.75 28.4375 -0.75 28.3125 C-2.41342837 26.64907163 -2.11048097 24.5299291 -2.3125 22.25 C-2.39628906 21.33089844 -2.48007812 20.41179687 -2.56640625 19.46484375 C-2.65728516 18.39943359 -2.65728516 18.39943359 -2.75 17.3125 C-1.76 17.6425 -0.77 17.9725 0.25 18.3125 C0.25 20.6225 0.25 22.9325 0.25 25.3125 C1.57 25.3125 2.89 25.3125 4.25 25.3125 C4.25 18.7125 4.25 12.1125 4.25 5.3125 C3.59 4.9825 2.93 4.6525 2.25 4.3125 C2.25 3.9825 2.25 3.6525 2.25 3.3125 C0.6 2.9825 -1.05 2.6525 -2.75 2.3125 C-2.75 6.6025 -2.75 10.8925 -2.75 15.3125 C-3.41 15.3125 -4.07 15.3125 -4.75 15.3125 C-5.08 12.3425 -5.41 9.3725 -5.75 6.3125 C-7.07 5.9825 -8.39 5.6525 -9.75 5.3125 C-7.23964755 0.53087629 -5.1279444 -0.03299836 0 0 Z " fill="#527DA6" transform="translate(292.75,287.6875)"/>
<path d="M0 0 C1.8125 1.5 1.8125 1.5 3 3 C3 2.01 3 1.02 3 0 C7.875 0.875 7.875 0.875 9 2 C9.33 1.34 9.66 0.68 10 0 C10.99 0 11.98 0 13 0 C13 3.63 13 7.26 13 11 C11.68 11 10.36 11 9 11 C8.34 10.01 7.68 9.02 7 8 C7 8.99 7 9.98 7 11 C6.01 11.33 5.02 11.66 4 12 C3.34 11.34 2.68 10.68 2 10 C1.01 10 0.02 10 -1 10 C-1.33 8.02 -1.66 6.04 -2 4 C-2.99 3.67 -3.98 3.34 -5 3 C-5.33 4.32 -5.66 5.64 -6 7 C-6.66 7 -7.32 7 -8 7 C-8.1875 4.625 -8.1875 4.625 -8 2 C-4.76746204 -0.15502531 -3.74849077 -0.46856135 0 0 Z " fill="#EBA999" transform="translate(336,329)"/>
<path d="M0 0 C0.33 0 0.66 0 1 0 C1.33 2.64 1.66 5.28 2 8 C4.31 8 6.62 8 9 8 C9 8.99 9 9.98 9 11 C7.02 11.33 5.04 11.66 3 12 C3.33 12.66 3.66 13.32 4 14 C4.039992 15.99960012 4.04346799 18.00047242 4 20 C2.68 19.67 1.36 19.34 0 19 C-0.33 17.68 -0.66 16.36 -1 15 C-8.92 15 -16.84 15 -25 15 C-24.67 14.34 -24.34 13.68 -24 13 C-21.7421875 12.65625 -21.7421875 12.65625 -18.875 12.5 C-15.46089696 12.25645179 -12.33360104 11.9566012 -9.0625 10.9375 C-6 10 -6 10 -2 10 C-2 8.68 -2 7.36 -2 6 C-1.34 6 -0.68 6 0 6 C0 4.02 0 2.04 0 0 Z " fill="#38648E" transform="translate(231,238)"/>
<path d="M0 0 C2.97 0 5.94 0 9 0 C11.25 4.5 11.25 4.5 11.1953125 8.109375 C11.18564453 9.24052734 11.18564453 9.24052734 11.17578125 10.39453125 C11.15902344 11.17183594 11.14226562 11.94914062 11.125 12.75 C11.11597656 13.54277344 11.10695313 14.33554687 11.09765625 15.15234375 C11.07417012 17.10169281 11.03830137 19.05088575 11 21 C10.67 21 10.34 21 10 21 C9.67 19.02 9.34 17.04 9 15 C8.01 17.31 7.02 19.62 6 22 C6.99 22.66 7.98 23.32 9 24 C6.625 24.625 6.625 24.625 4 25 C3.34 24.34 2.68 23.68 2 23 C2.66 23 3.32 23 4 23 C3.67 15.74 3.34 8.48 3 1 C2.01 0.67 1.02 0.34 0 0 Z " fill="#09457E" transform="translate(266,289)"/>
<path d="M0 0 C0.66 0 1.32 0 2 0 C2.33 7.92 2.66 15.84 3 24 C7.29 24 11.58 24 16 24 C15.01 23.34 14.02 22.68 13 22 C13.99 19.36 14.98 16.72 16 14 C16.66 14.33 17.32 14.66 18 15 C18 10.71 18 6.42 18 2 C18.66 2.33 19.32 2.66 20 3 C20 9.6 20 16.2 20 23 C19.34 23 18.68 23 18 23 C17.34 24.32 16.68 25.64 16 27 C13.52076199 27.02685095 11.0418116 27.04676547 8.5625 27.0625 C7.85544922 27.07087891 7.14839844 27.07925781 6.41992188 27.08789062 C4.61306441 27.09653588 2.80612397 27.05220011 1 27 C0 26 0 26 -0.11352539 23.49975586 C-0.10828857 22.41573486 -0.10305176 21.33171387 -0.09765625 20.21484375 C-0.09443359 19.04501953 -0.09121094 17.87519531 -0.08789062 16.66992188 C-0.07951172 15.43822266 -0.07113281 14.20652344 -0.0625 12.9375 C-0.05798828 11.70193359 -0.05347656 10.46636719 -0.04882812 9.19335938 C-0.03699608 6.12885883 -0.02051173 3.06445279 0 0 Z " fill="#849CB1" transform="translate(258,289)"/>
<path d="M0 0 C0.33 0 0.66 0 1 0 C1 2.97 1 5.94 1 9 C2.093125 8.79375 3.18625 8.5875 4.3125 8.375 C8 8 8 8 11 10 C11.92070253 13.25787048 12.31856608 15.19296594 11.0625 18.375 C10.711875 18.91125 10.36125 19.4475 10 20 C9.34 20 8.68 20 8 20 C7.67 20.66 7.34 21.32 7 22 C1.25 18.375 1.25 18.375 -1 15 C-0.98283648 12.38256342 -0.8673225 9.90777395 -0.625 7.3125 C-0.56828125 6.61060547 -0.5115625 5.90871094 -0.453125 5.18554688 C-0.31195359 3.45619715 -0.15728041 1.72795912 0 0 Z " fill="#CF958B" transform="translate(196,188)"/>
<path d="M0 0 C0.33 0.99 0.66 1.98 1 3 C1.99 2.67 2.98 2.34 4 2 C4 2.66 4 3.32 4 4 C5.32 4.33 6.64 4.66 8 5 C5.69 4.67 3.38 4.34 1 4 C1 4.99 1 5.98 1 7 C2.65 7 4.3 7 6 7 C6 7.33 6 7.66 6 8 C5.030625 8.309375 4.06125 8.61875 3.0625 8.9375 C0.15934208 9.69523342 0.15934208 9.69523342 -1 11 C-2.99958364 11.04080783 -5.00045254 11.04254356 -7 11 C-7.33 10.01 -7.66 9.02 -8 8 C-8.66 7.67 -9.32 7.34 -10 7 C-9.67 6.34 -9.34 5.68 -9 5 C-9.99 4.67 -10.98 4.34 -12 4 C-11.34 4 -10.68 4 -10 4 C-9.71125 3.360625 -9.4225 2.72125 -9.125 2.0625 C-6.85630752 -2.09676954 -4.13391544 -0.80880954 0 0 Z " fill="#D1A9A8" transform="translate(288,177)"/>
<path d="M0 0 C4.62 0 9.24 0 14 0 C13.01 0.33 12.02 0.66 11 1 C11.55728913 4.34373475 12.35173889 7.03312999 14 10 C10.93753253 11.78409802 8.77920727 12.22880021 5.25 12.125 C4.45078125 12.10695313 3.6515625 12.08890625 2.828125 12.0703125 C2.22484375 12.04710937 1.6215625 12.02390625 1 12 C-0.82089479 8.35821043 -0.05121113 3.99446852 0 0 Z M9 2 C10 4 10 4 10 4 Z M7 4 C7.34786708 5.97536745 7.34786708 5.97536745 8 8 C8.66 8.33 9.32 8.66 10 9 C9.67 7.35 9.34 5.7 9 4 C8.34 4 7.68 4 7 4 Z " fill="#EEC3BB" transform="translate(172,329)"/>
<path d="M0 0 C0.33 0.66 0.66 1.32 1 2 C1.99 2 2.98 2 4 2 C4.33 1.34 4.66 0.68 5 0 C6.58720201 8.0740276 6.58720201 8.0740276 4.375 11.5625 C1.60603446 13.23845283 0.18066523 13.5022103 -3 13 C-3.66 12.34 -4.32 11.68 -5 11 C-5.33 11 -5.66 11 -6 11 C-6.36658354 4.52369077 -6.36658354 4.52369077 -4.6875 2.125 C-3 1 -3 1 0 0 Z " fill="#DBA198" transform="translate(262,261)"/>
<path d="M0 0 C0.99 0.33 1.98 0.66 3 1 C2.34 1 1.68 1 1 1 C1.33 5.62 1.66 10.24 2 15 C1.34 15 0.68 15 0 15 C0 17.31 0 19.62 0 22 C-1.65 22 -3.3 22 -5 22 C-5 16.72 -5 11.44 -5 6 C-4.34 6 -3.68 6 -3 6 C-2.87625 5.195625 -2.7525 4.39125 -2.625 3.5625 C-2.41875 2.716875 -2.2125 1.87125 -2 1 C-1.34 0.67 -0.68 0.34 0 0 Z " fill="#05427B" transform="translate(221,291)"/>
<path d="M0 0 C0.33 0.66 0.66 1.32 1 2 C0.67 2.99 0.34 3.98 0 5 C-0.66 5 -1.32 5 -2 5 C-2 10.28 -2 15.56 -2 21 C-0.35 21 1.3 21 3 21 C3 18.69 3 16.38 3 14 C3.66 14 4.32 14 5 14 C4.67 13.01 4.34 12.02 4 11 C3.9314505 9.10529184 3.91519628 7.2083166 3.9375 5.3125 C3.94652344 4.31863281 3.95554688 3.32476562 3.96484375 2.30078125 C3.97644531 1.54152344 3.98804688 0.78226562 4 0 C4.66 0.33 5.32 0.66 6 1 C6 3.64 6 6.28 6 9 C6.66 9.33 7.32 9.66 8 10 C9 11 9 11 9.09765625 13.72265625 C9.08605469 14.82480469 9.07445312 15.92695313 9.0625 17.0625 C9.05347656 18.16722656 9.04445312 19.27195312 9.03515625 20.41015625 C9.02355469 21.26480469 9.01195312 22.11945313 9 23 C10.98 23 12.96 23 15 23 C15 23.33 15 23.66 15 24 C12.69 24 10.38 24 8 24 C7.67 21.03 7.34 18.06 7 15 C5.61666667 16.18333333 5.61666667 16.18333333 5.5 19.5 C5 23 5 23 4 24 C1 24.125 1 24.125 -2 24 C-4.26983959 21.73016041 -3.61298251 16.74751541 -3.8125 13.6875 C-3.88919922 12.81931641 -3.96589844 11.95113281 -4.04492188 11.05664062 C-4.45633283 4.59798428 -4.45633283 4.59798428 -2.01171875 1.39453125 C-1.34785156 0.93433594 -0.68398437 0.47414063 0 0 Z " fill="#6588A9" transform="translate(218,292)"/>
<path d="M0 0 C0.33 0 0.66 0 1 0 C1 7.92 1 15.84 1 24 C-0.98 24 -2.96 24 -5 24 C-5.16834933 22.22932584 -5.33461909 20.45845388 -5.5 18.6875 C-5.5928125 17.70136719 -5.685625 16.71523438 -5.78125 15.69921875 C-6.21677419 10.32516129 -6.21677419 10.32516129 -4 7 C-3.01 7 -2.02 7 -1 7 C-0.67 4.69 -0.34 2.38 0 0 Z " fill="#06417A" transform="translate(232,291)"/>
<path d="M0 0 C1.07765625 0.03609375 2.1553125 0.0721875 3.265625 0.109375 C4.49539062 0.17898438 4.49539062 0.17898438 5.75 0.25 C5.75 0.91 5.75 1.57 5.75 2.25 C6.74 2.25 7.73 2.25 8.75 2.25 C8.75 4.56 8.75 6.87 8.75 9.25 C5.9375 9.5625 5.9375 9.5625 2.75 9.25 C0.86400657 6.86107499 -0.25 5.33148442 -0.25 2.25 C-1.57 1.92 -2.89 1.59 -4.25 1.25 C-4.25 2.24 -4.25 3.23 -4.25 4.25 C-5.9 4.58 -7.55 4.91 -9.25 5.25 C-9.25 6.9 -9.25 8.55 -9.25 10.25 C-7.27 10.745 -7.27 10.745 -5.25 11.25 C-5.25 12.24 -5.25 13.23 -5.25 14.25 C-3.6 14.25 -1.95 14.25 -0.25 14.25 C-0.25 14.58 -0.25 14.91 -0.25 15.25 C-3.74644963 15.56785906 -5.647402 15.64644605 -8.625 13.6875 C-10.87340519 10.31489221 -10.81783945 8.22487617 -10.25 4.25 C-7.19727018 0.15061995 -4.98976387 -0.21694626 0 0 Z " fill="#43709C" transform="translate(203.25,287.75)"/>
<path d="M0 0 C1.66611905 -0.042721 3.33382885 -0.04063832 5 0 C5.33 0.33 5.66 0.66 6 1 C6.763125 1 7.52625 1 8.3125 1 C10.78252174 1 12.64149029 1.34937663 15 2 C15.66 2 16.32 2 17 2 C16.67373505 8.32278971 16.38495108 13.55464391 13 19 C12.01 19 11.02 19 10 19 C10.55450162 14.96005961 11.19955576 11.00222119 12 7 C8.04 5.35 4.08 3.7 0 2 C0 1.34 0 0.68 0 0 Z " fill="#52779C" transform="translate(253,244)"/>
<path d="M0 0 C1.0712828 6.02596573 1.09945415 11.88909517 1 18 C1.66 18.33 2.32 18.66 3 19 C0.66705225 19.04241723 -1.66702567 19.04092937 -4 19 C-5 18 -5 18 -5.09765625 14.40234375 C-5.0909822 12.91403133 -5.07902183 11.42573568 -5.0625 9.9375 C-5.05798828 9.17888672 -5.05347656 8.42027344 -5.04882812 7.63867188 C-5.0370068 5.75908129 -5.01907078 3.87953101 -5 2 C-1.125 0 -1.125 0 0 0 Z " fill="#05437E" transform="translate(265,295)"/>
<path d="M0 0 C0.33 0 0.66 0 1 0 C1 2.31 1 4.62 1 7 C1.66 7 2.32 7 3 7 C3 5.35 3 3.7 3 2 C3.33 2 3.66 2 4 2 C4.35807292 4.01822917 4.71614583 6.03645833 5.07421875 8.0546875 C5.86659383 10.20809732 5.86659383 10.20809732 8.21875 11.21875 C11.12695592 12.03566178 13.80174063 12.40735474 16.8125 12.625 C18.27623047 12.73714844 18.27623047 12.73714844 19.76953125 12.8515625 C20.50558594 12.90054688 21.24164063 12.94953125 22 13 C22 13.33 22 13.66 22 14 C18.37 14.33 14.74 14.66 11 15 C15.95 15.33 20.9 15.66 26 16 C26 16.33 26 16.66 26 17 C23.29105233 17.08144943 20.58458737 17.14070614 17.875 17.1875 C17.11445313 17.21263672 16.35390625 17.23777344 15.5703125 17.26367188 C10.62261546 17.32765072 7.26915004 16.77976236 3 14 C1.02407949 11.9157392 -0.12580084 9.73396044 -1 7 C-0.75 3.0625 -0.75 3.0625 0 0 Z " fill="#6A8DB4" transform="translate(196,237)"/>
<path d="M0 0 C0 0.33 0 0.66 0 1 C-2.05078125 1.22786458 -4.1015625 1.45572917 -6.15234375 1.68359375 C-8.01140229 1.81886614 -8.01140229 1.81886614 -9 3 C-5.7 3.33 -2.4 3.66 1 4 C1 4.33 1 4.66 1 5 C-0.44632813 5.05607422 -0.44632813 5.05607422 -1.921875 5.11328125 C-3.18515625 5.17902344 -4.4484375 5.24476563 -5.75 5.3125 C-7.00296875 5.37050781 -8.2559375 5.42851562 -9.546875 5.48828125 C-13.07234904 6.01072141 -14.59748068 6.40904779 -17 9 C-17.68850829 11.0316566 -17.68850829 11.0316566 -17.75 13.1875 C-17.8325 14.445625 -17.915 15.70375 -18 17 C-18.99 17 -19.98 17 -21 17 C-21.77841315 6.96711937 -21.77841315 6.96711937 -18.9375 3.4375 C-12.55120485 0.31229173 -6.98161338 -0.28496381 0 0 Z " fill="#8AA5C0" transform="translate(218,180)"/>
<path d="M0 0 C0.66 0 1.32 0 2 0 C2.125 7.75 2.125 7.75 1 10 C2.65 10.33 4.3 10.66 6 11 C6 11.33 6 11.66 6 12 C1.38 12 -3.24 12 -8 12 C-8 11.34 -8 10.68 -8 10 C-8.66 10 -9.32 10 -10 10 C-10 7.69 -10 5.38 -10 3 C-7.36 3 -4.72 3 -2 3 C-1.34 4.32 -0.68 5.64 0 7 C0 4.69 0 2.38 0 0 Z " fill="#6385A8" transform="translate(203,304)"/>
<path d="M0 0 C-0.1875 1.875 -0.1875 1.875 -1 4 C-5.23820959 6.313965 -9.47295216 6.3338328 -14.1875 6.3125 C-14.91130859 6.32861328 -15.63511719 6.34472656 -16.38085938 6.36132812 C-18.48046875 6.36328125 -18.48046875 6.36328125 -22 6 C-22.66 5.01 -23.32 4.02 -24 3 C-21.9878795 0.9878795 -18.02310413 1.63182009 -15.25 1.5 C-10.15568905 1.2526144 -5.03017087 0 0 0 Z " fill="#5B83AA" transform="translate(300,248)"/>
<path d="M0 0 C5.45454545 0.45454545 5.45454545 0.45454545 8 3 C8.375 5.9375 8.375 5.9375 8 9 C6.3125 10.9375 6.3125 10.9375 4 12 C-0.41025641 11.58974359 -0.41025641 11.58974359 -2 10 C-2.27314815 4.26388889 -2.27314815 4.26388889 -2 2 C-1.34 1.34 -0.68 0.68 0 0 Z M1 3 C1 4.65 1 6.3 1 8 C1.99 8 2.98 8 4 8 C3.67 6.35 3.34 4.7 3 3 C2.34 3 1.68 3 1 3 Z " fill="#DB8A78" transform="translate(282,329)"/>
<path d="M0 0 C1.65 0.33 3.3 0.66 5 1 C5.99 4.3 6.98 7.6 8 11 C6.68 11.33 5.36 11.66 4 12 C3.67 11.01 3.34 10.02 3 9 C2.34 9 1.68 9 1 9 C1 9.66 1 10.32 1 11 C0.01 11.33 -0.98 11.66 -2 12 C-2.99 11.34 -3.98 10.68 -5 10 C-4.67 9.34 -4.34 8.68 -4 8 C-3.34 8 -2.68 8 -2 8 C-1.34 5.36 -0.68 2.72 0 0 Z " fill="#E6A597" transform="translate(304,329)"/>
<path d="M0 0 C0.66 0.99 1.32 1.98 2 3 C1.34 4.32 0.68 5.64 0 7 C-0.66 6.01 -1.32 5.02 -2 4 C-2.66 4 -3.32 4 -4 4 C-4 5.32 -4 6.64 -4 8 C-2.35 8.33 -0.7 8.66 1 9 C-0.1875 10.5625 -0.1875 10.5625 -2 12 C-4.5 12 -4.5 12 -7 11 C-8.9375 8.75 -8.9375 8.75 -10 6 C-9.3125 3.25 -9.3125 3.25 -8 1 C-5.21136993 -0.39431504 -3.07921132 -0.25660094 0 0 Z " fill="#EBC1BD" transform="translate(246,329)"/>
<path d="M0 0 C2 0.9375 2 0.9375 4 3 C4.36475845 6.02534949 4.22893297 8.96663814 4 12 C2.02 12 0.04 12 -2 12 C-3.35439668 9.29120665 -3.06501451 6.99066732 -3 4 C-3.99 4 -4.98 4 -6 4 C-6.33 3.01 -6.66 2.02 -7 1 C-4.69 1.33 -2.38 1.66 0 2 C0 1.34 0 0.68 0 0 Z " fill="#1B5388" transform="translate(252,289)"/>
<path d="M0 0 C3.3 0 6.6 0 10 0 C10.33 1.32 10.66 2.64 11 4 C6.545 4.495 6.545 4.495 2 5 C2.33 7.97 2.66 10.94 3 14 C2.01 14.495 2.01 14.495 1 15 C1 13.02 1 11.04 1 9 C0.67 11.31 0.34 13.62 0 16 C-0.33 16 -0.66 16 -1 16 C-1.66 12.37 -2.32 8.74 -3 5 C-1.68 4.34 -0.36 3.68 1 3 C0.67 2.01 0.34 1.02 0 0 Z " fill="#5F7E9F" transform="translate(269,182)"/>
<path d="M0 0 C0.598125 0.165 1.19625 0.33 1.8125 0.5 C4.11344336 1.1114124 4.11344336 1.1114124 7 1 C7.66 1 8.32 1 9 1 C9.33 3.97 9.66 6.94 10 10 C8.02 10.33 6.04 10.66 4 11 C1.29727467 8.12835434 0.05208163 6.69008159 -0.25 2.6875 C-0.1675 1.800625 -0.085 0.91375 0 0 Z " fill="#E08C77" transform="translate(183,330)"/>
<path d="M0 0 C1.485 0.99 1.485 0.99 3 2 C3.34057617 3.97119141 3.34057617 3.97119141 3.29296875 6.3515625 C3.28330078 7.20234375 3.27363281 8.053125 3.26367188 8.9296875 C3.23853516 9.81914062 3.21339844 10.70859375 3.1875 11.625 C3.17396484 12.5221875 3.16042969 13.419375 3.14648438 14.34375 C3.11106925 16.56309789 3.06168461 18.78125188 3 21 C3.66 21 4.32 21 5 21 C5 21.66 5 22.32 5 23 C3.35 23 1.7 23 0 23 C-0.19635974 19.54210946 -0.38058252 16.08367803 -0.5625 12.625 C-0.61857422 11.64015625 -0.67464844 10.6553125 -0.73242188 9.640625 C-0.80493164 8.22910156 -0.80493164 8.22910156 -0.87890625 6.7890625 C-0.9260376 5.91975098 -0.97316895 5.05043945 -1.02172852 4.15478516 C-1 2 -1 2 0 0 Z " fill="#265280" transform="translate(270,206)"/>
<path d="M0 0 C4.56654362 -0.31493404 7.13595771 -0.40756712 11.3125 1.5625 C14.57449379 4.52105251 15.76415606 6.78359127 17 11 C16.82404702 15.39882452 15.60590892 18.45596387 13 22 C12.34 22 11.68 22 11 22 C10.67 20.35 10.34 18.7 10 17 C10.99 17.33 11.98 17.66 13 18 C13 16.68 13 15.36 13 14 C13.66 14 14.32 14 15 14 C14.67 12.35 14.34 10.7 14 9 C13.01 8.67 12.02 8.34 11 8 C11.33 6.68 11.66 5.36 12 4 C11.01 4 10.02 4 9 4 C9 3.34 9 2.68 9 2 C6.03 1.67 3.06 1.34 0 1 C0 0.67 0 0.34 0 0 Z " fill="#EAA495" transform="translate(246,205)"/>
<path d="M0 0 C1.65 0 3.3 0 5 0 C5 3.63 5 7.26 5 11 C3.68 11 2.36 11 1 11 C1 9.68 1 8.36 1 7 C0.01 7 -0.98 7 -2 7 C-2 7.99 -2 8.98 -2 10 C-2.66 10 -3.32 10 -4 10 C-4 7.36 -4 4.72 -4 2 C-3.34 2 -2.68 2 -2 2 C-2 2.99 -2 3.98 -2 5 C-1.01 5 -0.02 5 1 5 C0.67 3.35 0.34 1.7 0 0 Z " fill="#DE8977" transform="translate(166,329)"/>
<path d="M0 0 C2.97 0 5.94 0 9 0 C9 0.33 9 0.66 9 1 C7.35 1 5.7 1 4 1 C4 1.66 4 2.32 4 3 C3.34 3 2.68 3 2 3 C2.33 5.64 2.66 8.28 3 11 C1.68 11.33 0.36 11.66 -1 12 C-1.33 11.34 -1.66 10.68 -2 10 C-2.99 9.67 -3.98 9.34 -5 9 C-5 7.35 -5 5.7 -5 4 C-3.35 3.67 -1.7 3.34 0 3 C0 2.01 0 1.02 0 0 Z " fill="#03437E" transform="translate(199,289)"/>
<path d="M0 0 C2 2 2 2 2.1953125 5.2578125 C2.17210937 6.53398437 2.14890625 7.81015625 2.125 9.125 C2.10695313 10.40632812 2.08890625 11.68765625 2.0703125 13.0078125 C2.04710937 13.99523437 2.02390625 14.98265625 2 16 C3.12588014 15.04270084 4.2506715 14.08412105 5.375 13.125 C6.00148438 12.59132812 6.62796875 12.05765625 7.2734375 11.5078125 C8.55836651 10.38567993 9.79371975 9.20628025 11 8 C10.49396008 10.16874252 10.00016187 11.99967627 9 14 C9.66 14.33 10.32 14.66 11 15 C9.8803014 16.00593243 8.7540588 17.0045849 7.625 18 C6.99851562 18.556875 6.37203125 19.11375 5.7265625 19.6875 C4 21 4 21 2 21 C2 20.34 2 19.68 2 19 C1.34 19 0.68 19 0 19 C0 12.73 0 6.46 0 0 Z " fill="#79A0BF" transform="translate(273,208)"/>
<path d="M0 0 C4.34983801 0.18953543 8.06226619 0.57897666 12.0625 2.375 C15.14754858 6.55474324 14.3895043 10.97972235 14 16 C13.34 15.67 12.68 15.34 12 15 C12 12.69 12 10.38 12 8 C9.66785852 6.79371992 7.50357861 5.8345262 5 5 C5 4.34 5 3.68 5 3 C3.35 3 1.7 3 0 3 C0 2.01 0 1.02 0 0 Z " fill="#5581A5" transform="translate(289,181)"/>
<path d="M0 0 C0.99 0 1.98 0 3 0 C3 0.66 3 1.32 3 2 C2.34 2 1.68 2 1 2 C0.896875 2.99 0.79375 3.98 0.6875 5 C0.09191294 9.28297163 -1.38595027 12.99996371 -3 17 C-3.66 17 -4.32 17 -5 17 C-6.36710998 12.05737161 -6.15277518 9.65181801 -3.625 5.125 C-1.31034483 1.31034483 -1.31034483 1.31034483 0 0 Z " fill="#477197" transform="translate(239,162)"/>
<path d="M0 0 C4.62 0 9.24 0 14 0 C14 0.66 14 1.32 14 2 C12.35 2.33 10.7 2.66 9 3 C9 2.34 9 1.68 9 1 C8.05125 1.495 7.1025 1.99 6.125 2.5 C3 4 3 4 1 4 C1.165 5.093125 1.33 6.18625 1.5 7.3125 C2.05937751 11.43790914 1.92762903 15.07157055 1.5 19.1875 C1.4071875 20.08855469 1.314375 20.98960937 1.21875 21.91796875 C1.1465625 22.60503906 1.074375 23.29210937 1 24 C1.99 24.33 2.98 24.66 4 25 C2.68 25 1.36 25 0 25 C0 16.75 0 8.5 0 0 Z " fill="#074078" transform="translate(238,289)"/>
<path d="M0 0 C0.33 0 0.66 0 1 0 C1.02886751 4.14581887 1.04675327 8.29161216 1.0625 12.4375 C1.07087891 13.62150391 1.07925781 14.80550781 1.08789062 16.02539062 C1.09111328 17.15009766 1.09433594 18.27480469 1.09765625 19.43359375 C1.10289307 20.47572021 1.10812988 21.51784668 1.11352539 22.59155273 C1 25 1 25 0 26 C-3.5 26.125 -3.5 26.125 -7 26 C-8.66342837 24.33657163 -8.36048097 22.2174291 -8.5625 19.9375 C-8.64628906 19.01839844 -8.73007812 18.09929687 -8.81640625 17.15234375 C-8.90728516 16.08693359 -8.90728516 16.08693359 -9 15 C-8.34 15 -7.68 15 -7 15 C-7 17.97 -7 20.94 -7 24 C-5.02 24 -3.04 24 -1 24 C-1.01160156 23.35675781 -1.02320313 22.71351563 -1.03515625 22.05078125 C-1.10901995 14.65385931 -0.65578395 7.36585905 0 0 Z " fill="#8FADCA" transform="translate(299,290)"/>
<path d="M0 0 C2.31 0.33 4.62 0.66 7 1 C6.67 1.99 6.34 2.98 6 4 C6.66 4 7.32 4 8 4 C7.67 4.66 7.34 5.32 7 6 C6.401875 6.12375 5.80375 6.2475 5.1875 6.375 C2.29805668 7.20055523 0.98392064 8.80351643 -1 11 C-1.99 10.67 -2.98 10.34 -4 10 C-2.80000272 6.91429271 -1.47968053 3.95936106 0 1 C0 0.67 0 0.34 0 0 Z " fill="#446F99" transform="translate(209,215)"/>
<path d="M0 0 C0 0.99 0 1.98 0 3 C-1.98 3.33 -3.96 3.66 -6 4 C-5.67 4.66 -5.34 5.32 -5 6 C-4.960008 7.99960012 -4.95653201 10.00047242 -5 12 C-6.32 11.67 -7.64 11.34 -9 11 C-9.33 8.03 -9.66 5.06 -10 2 C-6.49223216 0.39644899 -3.85645121 -0.22036864 0 0 Z " fill="#2B5C8B" transform="translate(240,246)"/>
<path d="M0 0 C6.625 -0.25 6.625 -0.25 10 2 C10 3.32 10 4.64 10 6 C8 6 6 6 4 6 C4 4.68 4 3.36 4 2 C3.34 2 2.68 2 2 2 C2 4.64 2 7.28 2 10 C2.66 10 3.32 10 4 10 C4.33 9.01 4.66 8.02 5 7 C5.33 8.32 5.66 9.64 6 11 C4.35 11.33 2.7 11.66 1 12 C0.03929566 9.11788698 -0.10581883 7.30149956 -0.0625 4.3125 C-0.05347656 3.50425781 -0.04445313 2.69601562 -0.03515625 1.86328125 C-0.02355469 1.24839844 -0.01195312 0.63351562 0 0 Z M5 3 C6 5 6 5 6 5 Z " fill="#E6ACA1" transform="translate(258,329)"/>
<path d="M0 0 C0.66 0.33 1.32 0.66 2 1 C2 7.6 2 14.2 2 21 C1.34 21 0.68 21 0 21 C-0.33 21.99 -0.66 22.98 -1 24 C-1.33 23.34 -1.66 22.68 -2 22 C-2.99 21.34 -3.98 20.68 -5 20 C-4.01 17.36 -3.02 14.72 -2 12 C-1.34 12.33 -0.68 12.66 0 13 C0 8.71 0 4.42 0 0 Z " fill="#4878A6" transform="translate(276,291)"/>
<path d="M0 0 C4.77609498 1.64178265 8.79382904 4.26546702 13 7 C12.67 8.32 12.34 9.64 12 11 C7.69235185 9.43358249 3.93828536 7.31663844 0 5 C0 3.33333333 0 1.66666667 0 0 Z " fill="#52799D" transform="translate(232,230)"/>
<path d="M0 0 C1.32 0.33 2.64 0.66 4 1 C5.25 3.5625 5.25 3.5625 6 6 C5.01 6 4.02 6 3 6 C3 9.3 3 12.6 3 16 C2.01 16 1.02 16 0 16 C0 10.72 0 5.44 0 0 Z " fill="#275988" transform="translate(228,228)"/>
<path d="M0 0 C1.65 0.33 3.3 0.66 5 1 C5.27429625 6.39449293 5.36055646 9.51925805 2 14 C1.67 13.01 1.34 12.02 1 11 C-0.32 11.33 -1.64 11.66 -3 12 C-2.67 11.34 -2.34 10.68 -2 10 C-1.34 10 -0.68 10 0 10 C0 6.7 0 3.4 0 0 Z " fill="#5A81A5" transform="translate(299,237)"/>
<path d="M0 0 C2 2 2 2 2.1875 5 C2 8 2 8 1 10 C0.34 10 -0.32 10 -1 10 C-1.33 8.02 -1.66 6.04 -2 4 C-2.99 3.67 -3.98 3.34 -5 3 C-5.33 4.32 -5.66 5.64 -6 7 C-6.66 7 -7.32 7 -8 7 C-8.1875 4.625 -8.1875 4.625 -8 2 C-4.77626323 -0.14915785 -3.73296326 -0.38286803 0 0 Z " fill="#E0958B" transform="translate(336,329)"/>
<path d="M0 0 C0.33 0.66 0.66 1.32 1 2 C0.67 2.99 0.34 3.98 0 5 C-0.66 5 -1.32 5 -2 5 C-2 10.28 -2 15.56 -2 21 C-0.35 21 1.3 21 3 21 C3 19.35 3 17.7 3 16 C3.33 16 3.66 16 4 16 C4 18.64 4 21.28 4 24 C2.00045254 24.04254356 -0.00041636 24.04080783 -2 24 C-4.26983959 21.73016041 -3.61298251 16.74751541 -3.8125 13.6875 C-3.88919922 12.81931641 -3.96589844 11.95113281 -4.04492188 11.05664062 C-4.45633283 4.59798428 -4.45633283 4.59798428 -2.01171875 1.39453125 C-1.34785156 0.93433594 -0.68398437 0.47414063 0 0 Z " fill="#5B7E9F" transform="translate(218,292)"/>
<path d="M0 0 C0.33 0 0.66 0 1 0 C1 2.64 1 5.28 1 8 C1.66 8 2.32 8 3 8 C3 8.99 3 9.98 3 11 C5.97 11.33 8.94 11.66 12 12 C8.53571429 15.46428571 8.53571429 15.46428571 5 16 C3.68 16 2.36 16 1 16 C1.33 13.69 1.66 11.38 2 9 C0.35 9.33 -1.3 9.66 -3 10 C-2.34 9.67 -1.68 9.34 -1 9 C-0.53348793 6.87423218 -0.53348793 6.87423218 -0.375 4.4375 C-0.30023438 3.61121094 -0.22546875 2.78492188 -0.1484375 1.93359375 C-0.09945313 1.29550781 -0.05046875 0.65742188 0 0 Z " fill="#6E92B4" transform="translate(268,237)"/>
<path d="M0 0 C1.32 0.66 2.64 1.32 4 2 C2 4 2 4 -1 6 C-1.73606499 9.56769552 -1.73606499 9.56769552 -2 13 C-2.33 13 -2.66 13 -3 13 C-3 11.02 -3 9.04 -3 7 C-3.66 7 -4.32 7 -5 7 C-5.33 10.63 -5.66 14.26 -6 18 C-6.33 18 -6.66 18 -7 18 C-7.19392201 12.47322267 -6.7479503 8.24385089 -5 3 C-5.66 2.67 -6.32 2.34 -7 2 C-4.03 2.495 -4.03 2.495 -1 3 C-0.67 2.01 -0.34 1.02 0 0 Z " fill="#7597B8" transform="translate(234,184)"/>
<path d="M0 0 C2 1 2 1 4 3 C4.36933645 5.75372909 4.18336678 8.20365661 4 11 C3.34 11 2.68 11 2 11 C2 11.66 2 12.32 2 13 C-0.55363602 11.72318199 -0.73324804 10.74361591 -1.75 8.125 C-2.03359375 7.42632812 -2.3171875 6.72765625 -2.609375 6.0078125 C-3 4 -3 4 -1 1 C-0.67 0.67 -0.34 0.34 0 0 Z " fill="#376A97" transform="translate(209,301)"/>
<path d="M0 0 C1.07765625 0.03609375 2.1553125 0.0721875 3.265625 0.109375 C4.49539062 0.17898438 4.49539062 0.17898438 5.75 0.25 C5.75 0.58 5.75 0.91 5.75 1.25 C2.45 1.25 -0.85 1.25 -4.25 1.25 C-4.25 2.24 -4.25 3.23 -4.25 4.25 C-5.9 4.58 -7.55 4.91 -9.25 5.25 C-9.25 6.9 -9.25 8.55 -9.25 10.25 C-7.27 10.745 -7.27 10.745 -5.25 11.25 C-5.25 12.24 -5.25 13.23 -5.25 14.25 C-3.6 14.25 -1.95 14.25 -0.25 14.25 C-0.25 14.58 -0.25 14.91 -0.25 15.25 C-3.74644963 15.56785906 -5.647402 15.64644605 -8.625 13.6875 C-10.87340519 10.31489221 -10.81783945 8.22487617 -10.25 4.25 C-7.19727018 0.15061995 -4.98976387 -0.21694626 0 0 Z " fill="#80A4C4" transform="translate(203.25,287.75)"/>
<path d="M0 0 C0.66 0.33 1.32 0.66 2 1 C1.67 1.66 1.34 2.32 1 3 C1.66 3.33 2.32 3.66 3 4 C0.525 5.485 0.525 5.485 -2 7 C0.475 7.99 0.475 7.99 3 9 C2.01 9.66 1.02 10.32 0 11 C0 10.34 0 9.68 0 9 C-3.3 9.33 -6.6 9.66 -10 10 C-7 8 -7 8 -5 8 C-4.67 6.68 -4.34 5.36 -4 4 C-4.66 3.67 -5.32 3.34 -6 3 C-4.03533587 1.93224776 -2.03144641 0.93446535 0 0 Z " fill="#6288AB" transform="translate(258,235)"/>
<path d="M0 0 C0.33 0 0.66 0 1 0 C1.33 2.97 1.66 5.94 2 9 C2.66 6.69 3.32 4.38 4 2 C4.33 2 4.66 2 5 2 C5 3.98 5 5.96 5 8 C7.475 8.99 7.475 8.99 10 10 C10 10.99 10 11.98 10 13 C8.35 13 6.7 13 5 13 C5 12.34 5 11.68 5 11 C3.35 11 1.7 11 0 11 C0 7.37 0 3.74 0 0 Z " fill="#6187AA" transform="translate(244,291)"/>
<path d="M0 0 C1.4540625 0.0309375 1.4540625 0.0309375 2.9375 0.0625 C2.9375 2.3725 2.9375 4.6825 2.9375 7.0625 C0.6275 7.0625 -1.6825 7.0625 -4.0625 7.0625 C-4.10504356 5.06295254 -4.10330783 3.06208364 -4.0625 1.0625 C-3.0625 0.0625 -3.0625 0.0625 0 0 Z " fill="#E45637" transform="translate(262.0625,264.9375)"/>
<path d="M0 0 C0.33 0.66 0.66 1.32 1 2 C0.34 2 -0.32 2 -1 2 C-0.67 7.94 -0.34 13.88 0 20 C1.98 20 3.96 20 6 20 C6 17.69 6 15.38 6 13 C6.33 13 6.66 13 7 13 C7.09765625 19.15234375 7.09765625 19.15234375 7 21 C6 22 6 22 2.5 22.125 C-1 22 -1 22 -2 21 C-2.08669432 19.5112814 -2.10703494 18.018555 -2.09765625 16.52734375 C-2.09443359 15.62822266 -2.09121094 14.72910156 -2.08789062 13.80273438 C-2.07951172 12.85720703 -2.07113281 11.91167969 -2.0625 10.9375 C-2.05798828 9.98810547 -2.05347656 9.03871094 -2.04882812 8.06054688 C-2.0370011 5.70696935 -2.02052025 3.35351523 -2 1 C-1.34 0.67 -0.68 0.34 0 0 Z " fill="#97B4D1" transform="translate(282,294)"/>
<path d="M0 0 C2.64 0 5.28 0 8 0 C8 0.66 8 1.32 8 2 C7.01 2 6.02 2 5 2 C5.08064635 5.2926882 5.19350279 8.58349221 5.3125 11.875 C5.33505859 12.81214844 5.35761719 13.74929688 5.38085938 14.71484375 C5.41630859 15.61074219 5.45175781 16.50664062 5.48828125 17.4296875 C5.51446533 18.25710449 5.54064941 19.08452148 5.56762695 19.93701172 C5.83096637 22.39327932 5.83096637 22.39327932 9 24 C6.625 24.625 6.625 24.625 4 25 C3.34 24.34 2.68 23.68 2 23 C2.66 23 3.32 23 4 23 C3.67 15.74 3.34 8.48 3 1 C2.01 0.67 1.02 0.34 0 0 Z " fill="#0D4072" transform="translate(266,289)"/>
<path d="M0 0 C1.5625 1.625 1.5625 1.625 3 4 C2.7586135 7.01733125 2.35358479 9.29283042 1 12 C-1.31 11.67 -3.62 11.34 -6 11 C-5.38125 10.484375 -4.7625 9.96875 -4.125 9.4375 C-1.52523258 6.45541385 -0.88050877 3.81553799 0 0 Z " fill="#507BA3" transform="translate(232,175)"/>
<path d="M0 0 C1.2065625 0.0309375 1.2065625 0.0309375 2.4375 0.0625 C2.4375 2.7025 2.4375 5.3425 2.4375 8.0625 C0.77138095 8.105221 -0.89632885 8.10313832 -2.5625 8.0625 C-3.5625 7.0625 -3.5625 7.0625 -3.6875 4.0625 C-3.52180824 0.08589776 -3.52180824 0.08589776 0 0 Z " fill="#E65634" transform="translate(284.5625,177.9375)"/>
<path d="M0 0 C0.66 1.32 1.32 2.64 2 4 C2.66 4 3.32 4 4 4 C4.66 2.68 5.32 1.36 6 0 C6 1.98 6 3.96 6 6 C6.66 6 7.32 6 8 6 C8.33 5.34 8.66 4.68 9 4 C9 4.99 9 5.98 9 7 C9.66 7.33 10.32 7.66 11 8 C8.1875 8.6875 8.1875 8.6875 5 9 C3.125 7.5625 3.125 7.5625 2 6 C1.34 6.66 0.68 7.32 0 8 C0 5.36 0 2.72 0 0 Z " fill="#ECBCB4" transform="translate(326,332)"/>
<path d="M0 0 C-0.97309748 2.17075592 -1.7275461 3.7609078 -3.53125 5.34375 C-5.4200861 7.47371411 -5.48399034 8.87906664 -5.6875 11.6875 C-5.78611328 12.89986328 -5.78611328 12.89986328 -5.88671875 14.13671875 C-5.92410156 14.75160156 -5.96148437 15.36648437 -6 16 C-6.66 16 -7.32 16 -8 16 C-9.41550507 10.72402655 -8.60589799 7.76250323 -6 3 C-2.80645161 0 -2.80645161 0 0 0 Z " fill="#E28A77" transform="translate(246,206)"/>
<path d="M0 0 C0.33 0 0.66 0 1 0 C1.60565429 10.33938394 2.18615302 20.6374817 2 31 C1.67 31 1.34 31 1 31 C0.9175 29.7625 0.835 28.525 0.75 27.25 C0.36524541 24.01117036 0.09975997 23.12092117 -2.0625 20.5 C-2.701875 20.005 -3.34125 19.51 -4 19 C-3.01 18.67 -2.02 18.34 -1 18 C-1.01160156 16.78441406 -1.02320313 15.56882813 -1.03515625 14.31640625 C-1.04453278 12.73177236 -1.05363313 11.14713682 -1.0625 9.5625 C-1.07087891 8.76005859 -1.07925781 7.95761719 -1.08789062 7.13085938 C-1.0965143 5.08704779 -1.0522815 3.04316098 -1 1 C-0.67 0.67 -0.34 0.34 0 0 Z " fill="#96B6D3" transform="translate(226,208)"/>
<path d="M0 0 C2.97 0.495 2.97 0.495 6 1 C6 1.66 6 2.32 6 3 C9.63 3 13.26 3 17 3 C16.67 3.66 16.34 4.32 16 5 C11.53786124 6.24939885 7.85895506 6.30676966 3.5 4.75 C1 3 1 3 0 0 Z " fill="#D8705B" transform="translate(240,224)"/>
<path d="M0 0 C0.66 0 1.32 0 2 0 C2 1.32 2 2.64 2 4 C3.32 3.34 4.64 2.68 6 2 C7.25664978 4.90600261 8 6.79604584 8 10 C6.68 10 5.36 10 4 10 C3.67 8.68 3.34 7.36 3 6 C2.67 6.66 2.34 7.32 2 8 C1.34 8 0.68 8 0 8 C0 5.36 0 2.72 0 0 Z " fill="#DD7967" transform="translate(260,331)"/>
<path d="M0 0 C3.59391114 1.33488128 6.75490696 2.96022723 10 5 C9.67 6.32 9.34 7.64 9 9 C5.00499382 7.6302836 2.19990508 5.74277578 -1 3 C-0.67 2.01 -0.34 1.02 0 0 Z " fill="#477198" transform="translate(258,195)"/>
<path d="M0 0 C0.99 0.33 1.98 0.66 3 1 C4.23076923 6.41538462 4.23076923 6.41538462 3.0625 9.375 C2.711875 9.91125 2.36125 10.4475 2 11 C1.34 11 0.68 11 0 11 C-0.33 11.66 -0.66 12.32 -1 13 C-2.98 11.68 -4.96 10.36 -7 9 C-4.07175348 8.02391783 -2.04386724 7.91773332 1 8 C1.33 6.02 1.66 4.04 2 2 C1.01 1.67 0.02 1.34 -1 1 C-0.67 0.67 -0.34 0.34 0 0 Z " fill="#DAA59D" transform="translate(204,197)"/>
<path d="M0 0 C2.31 0 4.62 0 7 0 C6.67 1.98 6.34 3.96 6 6 C4.02 6.33 2.04 6.66 0 7 C-1.33332095 4.3333581 -0.67102033 2.83319697 0 0 Z " fill="#E55634" transform="translate(199,199)"/>
<path d="M0 0 C1.32 0 2.64 0 4 0 C3.34 3.96 2.68 7.92 2 12 C1.01 12 0.02 12 -1 12 C-1.02687279 10.18757948 -1.04633715 8.37504767 -1.0625 6.5625 C-1.07410156 5.55316406 -1.08570313 4.54382813 -1.09765625 3.50390625 C-1 1 -1 1 0 0 Z " fill="#50779C" transform="translate(198,185)"/>
<path d="M0 0 C0 1.32 0 2.64 0 4 C0.66 4.33 1.32 4.66 2 5 C1.01 5 0.02 5 -1 5 C-1 4.01 -1 3.02 -1 2 C-1.66 2 -2.32 2 -3 2 C-3 4.64 -3 7.28 -3 10 C-2.34 10 -1.68 10 -1 10 C-1 9.01 -1 8.02 -1 7 C-0.01 7.33 0.98 7.66 2 8 C2 8.99 2 9.98 2 11 C-1 12 -1 12 -4 11 C-4.185625 9.576875 -4.185625 9.576875 -4.375 8.125 C-4.71687177 4.91332809 -4.71687177 4.91332809 -7 3 C-4.49955934 -0.00052879 -4.2621484 0 0 0 Z " fill="#EFC9C3" transform="translate(165,329)"/>
<path d="M0 0 C0.66 0 1.32 0 2 0 C2 4.62 2 9.24 2 14 C1.01 14.33 0.02 14.66 -1 15 C-1.02685412 12.68756208 -1.04632841 10.3750373 -1.0625 8.0625 C-1.07410156 6.77472656 -1.08570313 5.48695313 -1.09765625 4.16015625 C-1 1 -1 1 0 0 Z " fill="#1E5080" transform="translate(270,230)"/>
<path d="M0 0 C0.99 0.495 0.99 0.495 2 1 C2.33 7.6 2.66 14.2 3 21 C2.01 20.34 1.02 19.68 0 19 C-0.34057617 17.02880859 -0.34057617 17.02880859 -0.29296875 14.6484375 C-0.28330078 13.79765625 -0.27363281 12.946875 -0.26367188 12.0703125 C-0.23853516 11.18085938 -0.21339844 10.29140625 -0.1875 9.375 C-0.17396484 8.4778125 -0.16042969 7.580625 -0.14648438 6.65625 C-0.11106925 4.43690211 -0.06168461 2.21874812 0 0 Z " fill="#103E6D" transform="translate(227,208)"/>
<path d="M0 0 C1.32 0 2.64 0 4 0 C4.33 1.65 4.66 3.3 5 5 C6.98 5.66 8.96 6.32 11 7 C11 7.66 11 8.32 11 9 C10.01 9.33 9.02 9.66 8 10 C7.01 9.34 6.02 8.68 5 8 C2.84725052 8.30840599 2.84725052 8.30840599 1 9 C1.66 7.02 2.32 5.04 3 3 C2.34 3 1.68 3 1 3 C0.67 2.01 0.34 1.02 0 0 Z " fill="#245483" transform="translate(281,213)"/>
<path d="M0 0 C0.66 0.33 1.32 0.66 2 1 C2 2.65 2 4.3 2 6 C2.33 6 2.66 6 3 6 C3.1875 9.375 3.1875 9.375 3 13 C2.01 13.66 1.02 14.32 0 15 C-0.99 14.01 -1.98 13.02 -3 12 C-2.01 11.67 -1.02 11.34 0 11 C0 7.37 0 3.74 0 0 Z " fill="#154878" transform="translate(269,190)"/>
<path d="M0 0 C0 0.66 0 1.32 0 2 C1.32 2.33 2.64 2.66 4 3 C2.73160474 3.50615298 1.46016898 4.00469099 0.1875 4.5 C-0.87404297 4.91765625 -0.87404297 4.91765625 -1.95703125 5.34375 C-4 6 -4 6 -7 6 C-7 5.34 -7 4.68 -7 4 C-7.99 3.67 -8.98 3.34 -10 3 C-3.375 0 -3.375 0 0 0 Z " fill="#5A80A5" transform="translate(262,186)"/>
<path d="M0 0 C0.66 0 1.32 0 2 0 C2 1.98 2 3.96 2 6 C2.66 6.33 3.32 6.66 4 7 C0.55930376 9.29379749 -0.72290301 10 -5 10 C-5 9.01 -5 8.02 -5 7 C-3.68 6.67 -2.36 6.34 -1 6 C-0.67 4.02 -0.34 2.04 0 0 Z " fill="#305E8A" transform="translate(267,178)"/>
<path d="M0 0 C1.98567708 0.5859375 3.97135417 1.171875 5.95703125 1.7578125 C5.95703125 2.0878125 5.95703125 2.4178125 5.95703125 2.7578125 C4.59578125 3.1290625 4.59578125 3.1290625 3.20703125 3.5078125 C-0.18850016 4.81378612 -1.68114438 6.05858465 -4.04296875 8.7578125 C-4.70296875 9.4178125 -5.36296875 10.0778125 -6.04296875 10.7578125 C-6.04296875 9.4378125 -6.04296875 8.1178125 -6.04296875 6.7578125 C-5.38296875 6.7578125 -4.72296875 6.7578125 -4.04296875 6.7578125 C-4.04296875 6.0978125 -4.04296875 5.4378125 -4.04296875 4.7578125 C-4.70296875 4.7578125 -5.36296875 4.7578125 -6.04296875 4.7578125 C-4.92142695 1.39318711 -3.83642022 -0.45479551 0 0 Z " fill="#5D80A1" transform="translate(246.04296875,157.2421875)"/>
<path d="M0 0 C0.99 0.33 1.98 0.66 3 1 C3.6875 3.0625 3.6875 3.0625 4 5 C5.65 5.33 7.3 5.66 9 6 C7.8125 7.5625 7.8125 7.5625 6 9 C1.57894737 8.57894737 1.57894737 8.57894737 0 7 C-0.04092937 4.66702567 -0.04241723 2.33294775 0 0 Z " fill="#DE988A" transform="translate(238,332)"/>
<path d="M0 0 C2 1 2 1 3.1875 3.9375 C4 7 4 7 3 9 C-1.29 9 -5.58 9 -10 9 C-10 8.67 -10 8.34 -10 8 C-7.36 8 -4.72 8 -2 8 C-2 7.34 -2 6.68 -2 6 C-1.34 6 -0.68 6 0 6 C0 4.02 0 2.04 0 0 Z " fill="#0B4072" transform="translate(206,306)"/>
<path d="M0 0 C1.32 0.33 2.64 0.66 4 1 C3.49287967 4.71888239 2.88391785 7.73454239 1 11 C0.01 11 -0.98 11 -2 11 C-1 3.57142857 -1 3.57142857 0 0 Z " fill="#4B6F94" transform="translate(265,252)"/>
<path d="M0 0 C0.33 0 0.66 0 1 0 C1 2.31 1 4.62 1 7 C1.66 7 2.32 7 3 7 C3 5.35 3 3.7 3 2 C3.33 2 3.66 2 4 2 C4.66 4.97 5.32 7.94 6 11 C5.01 11.495 5.01 11.495 4 12 C3.67 12.66 3.34 13.32 3 14 C-1.06153846 7.96923077 -1.06153846 7.96923077 -0.75 3.0625 C-0.5025 2.051875 -0.255 1.04125 0 0 Z " fill="#7B9CBB" transform="translate(196,237)"/>
<path d="M0 0 C1.65 0.33 3.3 0.66 5 1 C4.01 1.495 4.01 1.495 3 2 C2.5709742 4.09341518 2.5709742 4.09341518 2.4375 6.5 C2.09605489 10.90394511 2.09605489 10.90394511 1 12 C-0.99958364 12.04080783 -3.00045254 12.04254356 -5 12 C-5 11.34 -5 10.68 -5 10 C-3.35 10 -1.7 10 0 10 C0 6.7 0 3.4 0 0 Z " fill="#587A9C" transform="translate(243,304)"/>
<path d="M0 0 C0.99 0.33 1.98 0.66 3 1 C3 2.98 3 4.96 3 7 C5.97 7.495 5.97 7.495 9 8 C8.67 8.66 8.34 9.32 8 10 C6.02 10 4.04 10 2 10 C1.67 9.01 1.34 8.02 1 7 C0.34 6.67 -0.32 6.34 -1 6 C-0.67 5.34 -0.34 4.68 0 4 C-0.99 3.67 -1.98 3.34 -3 3 C-2.34 3 -1.68 3 -1 3 C-0.67 2.01 -0.34 1.02 0 0 Z " fill="#E19082" transform="translate(279,178)"/>
<path d="M0 0 C1.32 0 2.64 0 4 0 C4.66 2.31 5.32 4.62 6 7 C3.66666667 7 1.33333333 7 -1 7 C-0.67 4.69 -0.34 2.38 0 0 Z " fill="#E5A292" transform="translate(213,329)"/>
<path d="M0 0 C0.99 0 1.98 0 3 0 C3 3.63 3 7.26 3 11 C2.01 11 1.02 11 0 11 C0 7.37 0 3.74 0 0 Z " fill="#D37A64" transform="translate(323,330)"/>
<path d="M0 0 C4.95 0.33 9.9 0.66 15 1 C14.67 1.66 14.34 2.32 14 3 C9.38 3 4.76 3 0 3 C0 2.01 0 1.02 0 0 Z " fill="#0F4171" transform="translate(277,250)"/>
<path d="M0 0 C1.32 0.33 2.64 0.66 4 1 C4 2.98 4 4.96 4 7 C2.02 7.99 2.02 7.99 0 9 C0 6.03 0 3.06 0 0 Z " fill="#DE9382" transform="translate(254,331)"/>
<path d="M0 0 C0.94875 0.04125 1.8975 0.0825 2.875 0.125 C2.875 1.115 2.875 2.105 2.875 3.125 C1.225 3.455 -0.425 3.785 -2.125 4.125 C-2.455 5.445 -2.785 6.765 -3.125 8.125 C-3.785 8.125 -4.445 8.125 -5.125 8.125 C-5.25 5.25 -5.25 5.25 -5.125 2.125 C-3.125 0.125 -3.125 0.125 0 0 Z " fill="#D99182" transform="translate(156.125,328.875)"/>
<path d="M0 0 C4.63714903 1.46436285 4.63714903 1.46436285 6.3125 3.9375 C7 6 7 6 7 9 C4.625 8.4375 4.625 8.4375 2 7 C0.6875 3.375 0.6875 3.375 0 0 Z " fill="#3A668F" transform="translate(296,229)"/>
<path d="M0 0 C0.99 0 1.98 0 3 0 C5.09350689 3.4019487 5.17942163 6.05272412 5 10 C4.01 10.495 4.01 10.495 3 11 C3 9.02 3 7.04 3 5 C2.67 7.31 2.34 9.62 2 12 C1.67 12 1.34 12 1 12 C0.63896464 10.18885568 0.28634496 8.37603177 -0.0625 6.5625 C-0.25972656 5.55316406 -0.45695312 4.54382813 -0.66015625 3.50390625 C-0.77230469 2.67761719 -0.88445312 1.85132813 -1 1 C-0.67 0.67 -0.34 0.34 0 0 Z " fill="#5981A9" transform="translate(267,186)"/>
<path d="M0 0 C2.31 0 4.62 0 7 0 C7 0.33 7 0.66 7 1 C5.02 1 3.04 1 1 1 C1 3.97 1 6.94 1 10 C1.66 10 2.32 10 3 10 C3 9.01 3 8.02 3 7 C3.66 7 4.32 7 5 7 C4.67 8.65 4.34 10.3 4 12 C2.35 11.67 0.7 11.34 -1 11 C-0.67 7.37 -0.34 3.74 0 0 Z " fill="#F0CAC5" transform="translate(291,329)"/>
<path d="M0 0 C1.125 1.75 1.125 1.75 2 4 C1.05773345 6.66975522 0.01384202 7.98615798 -2 10 C-2.66 9.67 -3.32 9.34 -4 9 C-3.46930939 5.17902761 -2.50298434 2.93828597 0 0 Z " fill="#537DA2" transform="translate(205,222)"/>
<path d="M0 0 C1.4540625 0.0309375 1.4540625 0.0309375 2.9375 0.0625 C3.2675 1.3825 3.5975 2.7025 3.9375 4.0625 C0.9375 4.0625 0.9375 4.0625 -1.0625 3.0625 C-1.0625 5.0425 -1.0625 7.0225 -1.0625 9.0625 C-1.3925 9.0625 -1.7225 9.0625 -2.0625 9.0625 C-2.0625 6.7525 -2.0625 4.4425 -2.0625 2.0625 C-2.7225 1.7325 -3.3825 1.4025 -4.0625 1.0625 C-3.0625 0.0625 -3.0625 0.0625 0 0 Z " fill="#ECC9C4" transform="translate(206.0625,328.9375)"/>
<path d="M0 0 C0.66 0 1.32 0 2 0 C2.125 7.75 2.125 7.75 1 10 C-0.98 10 -2.96 10 -5 10 C-5 8.68 -5 7.36 -5 6 C-4.34 6 -3.68 6 -3 6 C-2.34 5.34 -1.68 4.68 -1 4 C-0.67 4.99 -0.34 5.98 0 7 C0 4.69 0 2.38 0 0 Z " fill="#6895BC" transform="translate(203,304)"/>
<path d="M0 0 C1.64574566 -0.02688151 3.29161413 -0.04634123 4.9375 -0.0625 C5.85402344 -0.07410156 6.77054687 -0.08570313 7.71484375 -0.09765625 C10 0 10 0 11 1 C11.04063832 2.66617115 11.042721 4.33388095 11 6 C10.34 6 9.68 6 9 6 C9 5.34 9 4.68 9 4 C8.34 3.67 7.68 3.34 7 3 C7 2.67 7 2.34 7 2 C5.35 1.67 3.7 1.34 2 1 C2 1.66 2 2.32 2 3 C1.01 2.67 0.02 2.34 -1 2 C-0.67 1.34 -0.34 0.68 0 0 Z " fill="#174674" transform="translate(288,289)"/>
<path d="M0 0 C0.66 0.33 1.32 0.66 2 1 C1.125 4.875 1.125 4.875 0 6 C-2.67058851 6.14115161 -5.32432238 6.04247107 -8 6 C-5.38485683 3.87961365 -2.80362384 1.86908256 0 0 Z " fill="#375F88" transform="translate(257,271)"/>
<path d="M0 0 C-0.33 2.31 -0.66 4.62 -1 7 C-1.66 7 -2.32 7 -3 7 C-3.33 7.66 -3.66 8.32 -4 9 C-4.33 6.36 -4.66 3.72 -5 1 C-2 0 -2 0 0 0 Z " fill="#174E80" transform="translate(270,246)"/>
<path d="M0 0 C1.875 -0.36328125 1.875 -0.36328125 4 -0.3125 C4.70125 -0.30863281 5.4025 -0.30476562 6.125 -0.30078125 C8 0 8 0 10 2 C9 3 9 3 6.49609375 3.09765625 C4.98208984 3.08025391 4.98208984 3.08025391 3.4375 3.0625 C2.42558594 3.05347656 1.41367188 3.04445312 0.37109375 3.03515625 C-0.41136719 3.02355469 -1.19382813 3.01195312 -2 3 C-1.34 2.01 -0.68 1.02 0 0 Z " fill="#0E3F6D" transform="translate(210,181)"/>
<path d="M0 0 C1.875 1.3125 1.875 1.3125 2.625 3.4375 C2.7075 4.05625 2.79 4.675 2.875 5.3125 C-2.875 4.4375 -2.875 4.4375 -5.125 3.3125 C-5.125 2.3225 -5.125 1.3325 -5.125 0.3125 C-2.125 -0.6875 -2.125 -0.6875 0 0 Z " fill="#437198" transform="translate(256.125,192.6875)"/>
<path d="M0 0 C2.5654594 2.5654594 2.54046087 4.47686668 3 8 C2.01 8.33 1.02 8.66 0 9 C-0.99 8.34 -1.98 7.68 -3 7 C-2.625 4.0625 -2.625 4.0625 -2 1 C-1.34 0.67 -0.68 0.34 0 0 Z " fill="#EDB8B1" transform="translate(340,332)"/>
<path d="M0 0 C0.33 0 0.66 0 1 0 C1.05395478 1.62463842 1.09277195 3.24978541 1.125 4.875 C1.14820313 5.77992188 1.17140625 6.68484375 1.1953125 7.6171875 C1 10 1 10 -1 12 C-1.99 11.67 -2.98 11.34 -4 11 C-3.67 7.7 -3.34 4.4 -3 1 C-2.67 1 -2.34 1 -2 1 C-1.67 3.31 -1.34 5.62 -1 8 C-0.67 5.36 -0.34 2.72 0 0 Z " fill="#7599BD" transform="translate(303,188)"/>
<path d="M0 0 C-3.20336822 2.83374881 -5.78087253 3.5205537 -10 4 C-9.625 2.0625 -9.625 2.0625 -9 0 C-5.93109813 -1.53445094 -3.29905734 -0.54984289 0 0 Z " fill="#4D759C" transform="translate(247,196)"/>
<path d="M0 0 C0.66 0 1.32 0 2 0 C2 0.99 2 1.98 2 3 C2.66 3 3.32 3 4 3 C4 3.66 4 4.32 4 5 C3.34 5 2.68 5 2 5 C2 5.99 2 6.98 2 8 C3.32 7.67 4.64 7.34 6 7 C6 7.66 6 8.32 6 9 C4.02 9 2.04 9 0 9 C0 6.03 0 3.06 0 0 Z " fill="#D0634A" transform="translate(174,331)"/>
<path d="M0 0 C0.99 0.33 1.98 0.66 3 1 C3 4.3 3 7.6 3 11 C2.01 10.67 1.02 10.34 0 10 C0 6.7 0 3.4 0 0 Z " fill="#D46A57" transform="translate(270,330)"/>
<path d="M0 0 C4.62 0 9.24 0 14 0 C14 0.66 14 1.32 14 2 C12.35 2.33 10.7 2.66 9 3 C9 2.34 9 1.68 9 1 C8.443125 1.350625 7.88625 1.70125 7.3125 2.0625 C4.46113217 3.21845993 2.91482778 2.80967438 0 2 C0 1.34 0 0.68 0 0 Z " fill="#0F3F6D" transform="translate(238,289)"/>
<path d="M0 0 C-0.1875 1.875 -0.1875 1.875 -1 4 C-3.89111788 5.52164099 -5.71823412 6 -9 6 C-9 5.01 -9 4.02 -9 3 C-2.25 0 -2.25 0 0 0 Z " fill="#0D477D" transform="translate(254,239)"/>
<path d="M0 0 C0.99 0 1.98 0 3 0 C3 1.32 3 2.64 3 4 C0.49515403 6.41847197 -0.46013806 7 -4 7 C-2.92598892 4.08482708 -2.22189824 2.22189824 0 0 Z " fill="#305F8A" transform="translate(225,204)"/>
<path d="M0 0 C2.64 0 5.28 0 8 0 C8.33 1.32 8.66 2.64 9 4 C6.36 3.67 3.72 3.34 1 3 C0.67 2.01 0.34 1.02 0 0 Z " fill="#3C668E" transform="translate(246,156)"/>
<path d="M0 0 C0.33 0 0.66 0 1 0 C1 1.98 1 3.96 1 6 C2.98 6.495 2.98 6.495 5 7 C5 7.99 5 8.98 5 10 C6.65 10 8.3 10 10 10 C10 10.33 10 10.66 10 11 C6.50355037 11.31785906 4.602598 11.39644605 1.625 9.4375 C-0.54455002 6.18317497 -0.29451507 3.82869586 0 0 Z " fill="#93B0CB" transform="translate(193,292)"/>
<path d="M0 0 C0.66 0 1.32 0 2 0 C2 0.66 2 1.32 2 2 C2.66 2 3.32 2 4 2 C4 3.98 4 5.96 4 8 C2.68 7.67 1.36 7.34 0 7 C0 4.69 0 2.38 0 0 Z " fill="#38638B" transform="translate(231,250)"/>
<path d="M0 0 C-0.33 0.99 -0.66 1.98 -1 3 C-4.375 3.125 -4.375 3.125 -8 3 C-8.66 2.34 -9.32 1.68 -10 1 C-6.78548731 -0.60725635 -3.56387464 -0.05748185 0 0 Z " fill="#1A5387" transform="translate(255,190)"/>
<path d="M0 0 C1.65 1.65 3.3 3.3 5 5 C4.67 5.66 4.34 6.32 4 7 C3.34 6.67 2.68 6.34 2 6 C1.67 6.66 1.34 7.32 1 8 C0.01 6.35 -0.98 4.7 -2 3 C-1.34 3 -0.68 3 0 3 C0 2.01 0 1.02 0 0 Z " fill="#5A82A3" transform="translate(259,161)"/>
<path d="M0 0 C1.50559539 1.96382007 2.89131683 3.78263366 4 6 C4.66 6.33 5.32 6.66 6 7 C3.6875 7.6875 3.6875 7.6875 1 8 C-0.8125 6.5625 -0.8125 6.5625 -2 5 C-1.34 5 -0.68 5 0 5 C0 3.35 0 1.7 0 0 Z " fill="#EAAEA6" transform="translate(282,333)"/>
<path d="M0 0 C0.33 0 0.66 0 1 0 C1 2.64 1 5.28 1 8 C-0.98 8 -2.96 8 -5 8 C-5 7.01 -5 6.02 -5 5 C-3.35 5 -1.7 5 0 5 C0 3.35 0 1.7 0 0 Z " fill="#4D7091" transform="translate(221,308)"/>
<path d="M0 0 C2.97 0 5.94 0 9 0 C9 0.33 9 0.66 9 1 C7.35 1 5.7 1 4 1 C4 1.66 4 2.32 4 3 C3.34 3 2.68 3 2 3 C2 4.65 2 6.3 2 8 C0.23537317 4.91190305 0 3.76687864 0 0 Z " fill="#0D3F6E" transform="translate(199,289)"/>
<path d="M0 0 C0.33 0 0.66 0 1 0 C1.1953125 2.05078125 1.390625 4.1015625 1.5859375 6.15234375 C1.72257813 6.76207031 1.85921875 7.37179688 2 8 C2.66 8.33 3.32 8.66 4 9 C2.02 9.33 0.04 9.66 -2 10 C-2 8.68 -2 7.36 -2 6 C-1.34 6 -0.68 6 0 6 C0 4.02 0 2.04 0 0 Z " fill="#5984AA" transform="translate(231,238)"/>
<path d="M0 0 C0.66 0.66 1.32 1.32 2 2 C1.67 2.99 1.34 3.98 1 5 C-1.31 4.67 -3.62 4.34 -6 4 C-6.33 3.01 -6.66 2.02 -7 1 C-4.69 1.33 -2.38 1.66 0 2 C0 1.34 0 0.68 0 0 Z " fill="#33699D" transform="translate(252,289)"/>
<path d="M0 0 C1.33998047 0.06960938 1.33998047 0.06960938 2.70703125 0.140625 C3.60808594 0.17671875 4.50914062 0.2128125 5.4375 0.25 C6.46810547 0.31960938 6.46810547 0.31960938 7.51953125 0.390625 C7.51953125 0.720625 7.51953125 1.050625 7.51953125 1.390625 C6.57078125 1.514375 5.62203125 1.638125 4.64453125 1.765625 C1.43285934 2.10749677 1.43285934 2.10749677 -0.48046875 4.390625 C-3.10546875 4.515625 -3.10546875 4.515625 -5.48046875 4.390625 C-3.17521711 0.50003419 -3.17521711 0.50003419 0 0 Z " fill="#93B2D0" transform="translate(224.48046875,287.609375)"/>
<path d="M0 0 C2.05078125 0.03255208 4.1015625 0.06510417 6.15234375 0.09765625 C6.15234375 0.42765625 6.15234375 0.75765625 6.15234375 1.09765625 C4.17234375 1.42765625 2.19234375 1.75765625 0.15234375 2.09765625 C-0.50765625 4.07765625 -1.16765625 6.05765625 -1.84765625 8.09765625 C-2.17765625 8.09765625 -2.50765625 8.09765625 -2.84765625 8.09765625 C-2.89007348 5.7647085 -2.88858562 3.43063058 -2.84765625 1.09765625 C-1.84765625 0.09765625 -1.84765625 0.09765625 0 0 Z " fill="#DE9283" transform="translate(258.84765625,263.90234375)"/>
<path d="M0 0 C0.66 0 1.32 0 2 0 C1.67 2.31 1.34 4.62 1 7 C0.01 7.33 -0.98 7.66 -2 8 C-2.33 6.35 -2.66 4.7 -3 3 C-2.01 3.33 -1.02 3.66 0 4 C0 2.68 0 1.36 0 0 Z " fill="#E07D68" transform="translate(259,219)"/>
<path d="M0 0 C1.32 0.33 2.64 0.66 4 1 C4 2.32 4 3.64 4 5 C4.99 5.33 5.98 5.66 7 6 C4.3333581 7.33332095 2.83319697 6.67102033 0 6 C0 4.02 0 2.04 0 0 Z " fill="#3E6F99" transform="translate(285,213)"/>
<path d="M0 0 C0.6875 1.8125 0.6875 1.8125 1 4 C-0.3125 5.75 -0.3125 5.75 -2 7 C-2.66 7 -3.32 7 -4 7 C-3.67 5.02 -3.34 3.04 -3 1 C-2.01 0.67 -1.02 0.34 0 0 Z " fill="#305E8A" transform="translate(301,198)"/>
<path d="M0 0 C0.33 0 0.66 0 1 0 C1 3.63 1 7.26 1 11 C0.01 10.67 -0.98 10.34 -2 10 C-2 8.35 -2 6.7 -2 5 C-1.67 5 -1.34 5 -1 5 C-0.67 3.35 -0.34 1.7 0 0 Z " fill="#D07462" transform="translate(347,330)"/>
<path d="M0 0 C0.99 0 1.98 0 3 0 C3 2.64 3 5.28 3 8 C2.34 8 1.68 8 1 8 C-0.35439668 5.29120665 -0.06501451 2.99066732 0 0 Z " fill="#DB7864" transform="translate(247,332)"/>
<path d="M0 0 C0.66 0 1.32 0 2 0 C2.125 5.75 2.125 5.75 1 8 C0.34 8 -0.32 8 -1 8 C-1.04241723 5.66705225 -1.04092937 3.33297433 -1 1 C-0.67 0.67 -0.34 0.34 0 0 Z " fill="#D17260" transform="translate(336,331)"/>
<path d="M0 0 C0.66 0 1.32 0 2 0 C2.33 2.97 2.66 5.94 3 9 C2.01 9 1.02 9 0 9 C-0.87890625 2.84765625 -0.87890625 2.84765625 -1 1 C-0.67 0.67 -0.34 0.34 0 0 Z " fill="#D55D47" transform="translate(190,331)"/>
<path d="M0 0 C2 3 2 3 2 5 C1.34 5 0.68 5 0 5 C-0.33 6.32 -0.66 7.64 -1 9 C-1.66 6.36 -2.32 3.72 -3 1 C-2.01 0.67 -1.02 0.34 0 0 Z " fill="#587DA4" transform="translate(235,256)"/>
<path d="M0 0 C0.33 0 0.66 0 1 0 C0.67 3.3 0.34 6.6 0 10 C-0.66 10 -1.32 10 -2 10 C-2 7.36 -2 4.72 -2 2 C-1.34 2 -0.68 2 0 2 C0 1.34 0 0.68 0 0 Z " fill="#124472" transform="translate(199,234)"/>
<path d="M0 0 C4.875 1.75 4.875 1.75 6 4 C5.34 4 4.68 4 4 4 C4.33 4.99 4.66 5.98 5 7 C2.525 6.01 2.525 6.01 0 5 C0 3.33333333 0 1.66666667 0 0 Z " fill="#6B8DAD" transform="translate(232,230)"/>
<path d="M0 0 C2.475 0.99 2.475 0.99 5 2 C5 2.66 5 3.32 5 4 C7.64 4.33 10.28 4.66 13 5 C13 5.33 13 5.66 13 6 C4.83413394 5.65103136 4.83413394 5.65103136 1.4375 3 C0 1 0 1 0 0 Z " fill="#EAAFA5" transform="translate(240,224)"/>
<path d="M0 0 C0.66 0.66 1.32 1.32 2 2 C1.67028521 5.29714793 1.3773161 6.6226839 -1 9 C-1.625 6.1875 -1.625 6.1875 -2 3 C-1.34 2.01 -0.68 1.02 0 0 Z " fill="#4E779F" transform="translate(266,173)"/>
<path d="M0 0 C0 0.66 0 1.32 0 2 C0.66 2.33 1.32 2.66 2 3 C-0.97 3 -3.94 3 -7 3 C-6.67 2.01 -6.34 1.02 -6 0 C-3.50907189 -1.24546405 -2.58919267 -0.7767578 0 0 Z " fill="#F3D6D5" transform="translate(211,338)"/>
<path d="M0 0 C0.33 0 0.66 0 1 0 C1 2.31 1 4.62 1 7 C1.66 7 2.32 7 3 7 C3.33 6.01 3.66 5.02 4 4 C4.33 5.32 4.66 6.64 5 8 C3.35 8.33 1.7 8.66 0 9 C-1.15941038 5.52176885 -0.70820884 3.54104422 0 0 Z " fill="#E8B9B0" transform="translate(259,332)"/>
<path d="M0 0 C2.97 1.98 2.97 1.98 6 4 C5.01 4.33 4.02 4.66 3 5 C3 5.66 3 6.32 3 7 C1.68 6.34 0.36 5.68 -1 5 C-0.34 4.67 0.32 4.34 1 4 C0.67 2.68 0.34 1.36 0 0 Z " fill="#638BAD" transform="translate(242,270)"/>
<path d="M0 0 C2.91517292 1.07401108 4.77810176 1.77810176 7 4 C5.68 4 4.36 4 3 4 C3.33 4.66 3.66 5.32 4 6 C1.525 5.01 1.525 5.01 -1 4 C-0.67 2.68 -0.34 1.36 0 0 Z " fill="#7192AE" transform="translate(258,195)"/>
<path d="M0 0 C2.97 0.33 5.94 0.66 9 1 C8.01 1.495 8.01 1.495 7 2 C7 2.66 7 3.32 7 4 C4.69 3.67 2.38 3.34 0 3 C0 2.01 0 1.02 0 0 Z " fill="#2C4971" transform="translate(289,181)"/>
<path d="M0 0 C2.475 0.495 2.475 0.495 5 1 C5 3.64 5 6.28 5 9 C4.01 9.495 4.01 9.495 3 10 C3 7.69 3 5.38 3 3 C2.01 2.67 1.02 2.34 0 2 C0 1.34 0 0.68 0 0 Z " fill="#EEB9AF" transform="translate(311,330)"/>
<path d="M0 0 C1.32 0 2.64 0 4 0 C3.67 3.3 3.34 6.6 3 10 C2.67 10 2.34 10 2 10 C2 7.36 2 4.72 2 2 C1.01 2.33 0.02 2.66 -1 3 C-0.67 2.01 -0.34 1.02 0 0 Z " fill="#E4AAA4" transform="translate(190,329)"/>
<path d="M0 0 C1.9375 0.3125 1.9375 0.3125 4 1 C4.33 1.99 4.66 2.98 5 4 C4.01 4.495 4.01 4.495 3 5 C0.875 4.0625 0.875 4.0625 -1 3 C-0.67 2.01 -0.34 1.02 0 0 Z " fill="#37608B" transform="translate(221,223)"/>
<path d="M0 0 C0.66 0.33 1.32 0.66 2 1 C2 3.97 2 6.94 2 10 C1.34 9.67 0.68 9.34 0 9 C-0.44921875 7.1875 -0.44921875 7.1875 -0.6875 5 C-0.77386719 4.278125 -0.86023438 3.55625 -0.94921875 2.8125 C-0.96597656 2.214375 -0.98273438 1.61625 -1 1 C-0.67 0.67 -0.34 0.34 0 0 Z " fill="#0D3E6D" transform="translate(301,187)"/>
<path d="M0 0 C0.99 0 1.98 0 3 0 C3.33 1.98 3.66 3.96 4 6 C2.68 5.34 1.36 4.68 0 4 C0 2.68 0 1.36 0 0 Z " fill="#30618C" transform="translate(235,261)"/>
<path d="M0 0 C3.04386724 -0.08226668 5.07175348 0.02391783 8 1 C8 1.66 8 2.32 8 3 C2.25 3.125 2.25 3.125 0 2 C0 1.34 0 0.68 0 0 Z " fill="#2D5985" transform="translate(253,244)"/>
<path d="M0 0 C2.00720923 0.28674418 4.0085944 0.61866701 6 1 C5.34 3.97 4.68 6.94 4 10 C3.67 10 3.34 10 3 10 C3 7.36 3 4.72 3 2 C1.68 1.67 0.36 1.34 -1 1 C-0.67 0.67 -0.34 0.34 0 0 Z " fill="#7293B5" transform="translate(269,228)"/>
<path d="M0 0 C1.75 1.4375 1.75 1.4375 3 3 C2.67 3.66 2.34 4.32 2 5 C1.34 4.67 0.68 4.34 0 4 C-0.33 4.66 -0.66 5.32 -1 6 C-1.99 4.35 -2.98 2.7 -4 1 C-2.1875 0.3125 -2.1875 0.3125 0 0 Z " fill="#688BAC" transform="translate(297,226)"/>
<path d="M0 0 C0.33 0 0.66 0 1 0 C1.12375 0.969375 1.2475 1.93875 1.375 2.9375 C1.684375 4.4534375 1.684375 4.4534375 2 6 C2.66 6.33 3.32 6.66 4 7 C4 7.66 4 8.32 4 9 C2.35 9 0.7 9 -1 9 C-0.67 6.03 -0.34 3.06 0 0 Z " fill="#084076" transform="translate(271,220)"/>
<path d="M0 0 C2.475 0.495 2.475 0.495 5 1 C4.67 1.99 4.34 2.98 4 4 C4.66 4 5.32 4 6 4 C5.67 4.66 5.34 5.32 5 6 C3.0625 5.25 3.0625 5.25 1 4 C0.25 1.875 0.25 1.875 0 0 Z " fill="#05417A" transform="translate(211,215)"/>
<path d="M0 0 C0.99 0.33 1.98 0.66 3 1 C2.34 2.98 1.68 4.96 1 7 C0.34 6.67 -0.32 6.34 -1 6 C-0.67 5.34 -0.34 4.68 0 4 C-0.99 3.67 -1.98 3.34 -3 3 C-2.34 3 -1.68 3 -1 3 C-0.67 2.01 -0.34 1.02 0 0 Z " fill="#D39288" transform="translate(279,178)"/>
<path d="M0 0 C1.37562854 1.28965176 2.70766393 2.62689293 4 4 C4 4.66 4 5.32 4 6 C2.68 5.67 1.36 5.34 0 5 C-0.5625 3.0625 -0.5625 3.0625 -1 1 C-0.67 0.67 -0.34 0.34 0 0 Z " fill="#2F527C" transform="translate(204,206)"/>
<path d="M0 0 C-1.0975223 2.99324263 -1.67682892 3.84610901 -4.625 5.25 C-5.40875 5.4975 -6.1925 5.745 -7 6 C-5.52522876 2.59668175 -4.14385429 0 0 0 Z " fill="#E19789" transform="translate(246,206)"/>
<path d="M0 0 C0.33 0 0.66 0 1 0 C1.33 2.64 1.66 5.28 2 8 C1.01 8 0.02 8 -1 8 C-1.04241723 5.66705225 -1.04092937 3.33297433 -1 1 C-0.67 0.67 -0.34 0.34 0 0 Z " fill="#1A3F67" transform="translate(198,189)"/>
<path d="M0 0 C0 0.99 0 1.98 0 3 C-2.31 2.67 -4.62 2.34 -7 2 C-6 0 -6 0 -4.0625 -0.6875 C-2 -1 -2 -1 0 0 Z " fill="#0D437B" transform="translate(233,184)"/>
<path d="M0 0 C1.84765625 0.33984375 1.84765625 0.33984375 4.0625 0.9375 C5.16271484 1.22947266 5.16271484 1.22947266 6.28515625 1.52734375 C7.13400391 1.76130859 7.13400391 1.76130859 8 2 C8 2.33 8 2.66 8 3 C5.69 3.66 3.38 4.32 1 5 C0.34 3.68 -0.32 2.36 -1 1 C-0.67 0.67 -0.34 0.34 0 0 Z " fill="#6890B6" transform="translate(244,157)"/>
</svg>
