<?xml version="1.0" encoding="UTF-8"?>
<svg xmlns="http://www.w3.org/2000/svg" xmlns:xlink="http://www.w3.org/1999/xlink" width="32px" height="32px" viewBox="0 0 32 32" version="1.1">
<g id="surface1">
<path style=" stroke:none;fill-rule:nonzero;fill:rgb(95.686275%,96.862745%,99.607843%);fill-opacity:1;" d="M 0 0 C 10.558594 0 21.121094 0 32 0 C 32 10.558594 32 21.121094 32 32 C 21.441406 32 10.878906 32 0 32 C 0 21.441406 0 10.878906 0 0 Z M 0 0 "/>
<path style=" stroke:none;fill-rule:nonzero;fill:rgb(8.235294%,31.372549%,54.117647%);fill-opacity:1;" d="M 16.320312 10.046875 C 16.492188 10.183594 16.492188 10.183594 16.640625 10.367188 C 16.667969 10.402344 16.695312 10.433594 16.722656 10.464844 C 17.003906 10.828125 17.214844 11.25 17.214844 11.710938 C 17.425781 11.691406 17.636719 11.667969 17.855469 11.648438 C 17.878906 11.5625 17.898438 11.480469 17.921875 11.390625 C 17.953125 11.359375 17.953125 11.359375 17.984375 11.328125 C 18.132812 11.347656 18.28125 11.367188 18.433594 11.390625 C 18.464844 11.488281 18.464844 11.488281 18.496094 11.585938 C 18.609375 11.589844 18.609375 11.589844 18.726562 11.597656 C 19.035156 11.632812 19.175781 11.75 19.390625 11.96875 C 19.503906 12.195312 19.445312 12.429688 19.390625 12.671875 C 19.214844 13.160156 18.917969 13.519531 18.558594 13.886719 C 18.582031 13.917969 18.605469 13.949219 18.628906 13.980469 C 19.519531 15.152344 19.519531 15.152344 19.457031 15.679688 C 19.332031 15.945312 19.234375 16.046875 18.976562 16.183594 C 18.382812 16.371094 17.792969 16.253906 17.214844 16.0625 C 17.207031 16.109375 17.199219 16.152344 17.191406 16.195312 C 17.171875 16.285156 17.171875 16.285156 17.15625 16.371094 C 17.140625 16.457031 17.140625 16.457031 17.121094 16.546875 C 17.089844 16.703125 17.089844 16.703125 17.023438 16.894531 C 17.046875 16.917969 17.066406 16.9375 17.089844 16.960938 C 17.101562 17.148438 17.101562 17.148438 17.089844 17.34375 C 16.960938 17.472656 16.960938 17.472656 16.742188 17.53125 C 16.515625 17.582031 16.515625 17.582031 16.386719 17.703125 C 16.222656 17.8125 16.078125 17.835938 15.882812 17.824219 C 15.542969 17.742188 15.320312 17.476562 15.132812 17.195312 C 14.9375 16.832031 14.84375 16.46875 14.785156 16.0625 C 14.710938 16.085938 14.710938 16.085938 14.632812 16.109375 C 14.074219 16.257812 13.476562 16.355469 12.917969 16.140625 C 12.726562 16.019531 12.628906 15.886719 12.542969 15.679688 C 12.503906 15.164062 12.746094 14.75 13.0625 14.363281 C 13.1875 14.222656 13.3125 14.085938 13.441406 13.953125 C 13.414062 13.917969 13.386719 13.882812 13.359375 13.847656 C 13.324219 13.800781 13.289062 13.753906 13.253906 13.707031 C 13.21875 13.664062 13.183594 13.617188 13.144531 13.570312 C 13.054688 13.441406 13.054688 13.441406 12.992188 13.246094 C 12.941406 13.238281 12.890625 13.230469 12.839844 13.222656 C 12.671875 13.183594 12.671875 13.183594 12.542969 13.054688 C 12.539062 12.886719 12.542969 12.726562 12.550781 12.554688 C 12.554688 12.511719 12.554688 12.464844 12.554688 12.417969 C 12.574219 12.105469 12.632812 11.925781 12.863281 11.710938 C 13.125 11.5625 13.386719 11.5625 13.679688 11.566406 C 13.726562 11.566406 13.769531 11.570312 13.816406 11.570312 C 14.15625 11.574219 14.457031 11.617188 14.785156 11.710938 C 14.785156 11.652344 14.789062 11.597656 14.792969 11.535156 C 14.867188 10.992188 15.210938 10.40625 15.632812 10.054688 C 15.875 9.957031 16.078125 9.96875 16.320312 10.046875 Z M 16.320312 10.046875 "/>
<path style=" stroke:none;fill-rule:nonzero;fill:rgb(94.901961%,95.686275%,98.823529%);fill-opacity:1;" d="M 16.257812 12.542969 C 16.5 12.660156 16.730469 12.785156 16.960938 12.929688 C 17.019531 12.960938 17.078125 12.992188 17.136719 13.023438 C 17.371094 13.285156 17.335938 13.574219 17.335938 13.910156 C 17.339844 13.976562 17.34375 14.042969 17.347656 14.113281 C 17.347656 14.585938 17.347656 14.585938 17.160156 14.78125 C 17.011719 14.878906 16.863281 14.960938 16.703125 15.039062 C 16.648438 15.078125 16.59375 15.113281 16.535156 15.148438 C 16.492188 15.175781 16.449219 15.203125 16.402344 15.226562 C 16.359375 15.253906 16.316406 15.28125 16.269531 15.308594 C 16.066406 15.382812 15.953125 15.355469 15.742188 15.296875 C 15.570312 15.210938 15.40625 15.109375 15.242188 15.007812 C 15.179688 14.96875 15.179688 14.96875 15.113281 14.925781 C 14.796875 14.734375 14.796875 14.734375 14.71875 14.65625 C 14.5625 13.421875 14.5625 13.421875 14.847656 12.996094 C 15.015625 12.882812 15.171875 12.808594 15.359375 12.734375 C 15.4375 12.683594 15.519531 12.628906 15.597656 12.574219 C 15.867188 12.453125 15.96875 12.457031 16.257812 12.542969 Z M 16.257812 12.542969 "/>
<path style=" stroke:none;fill-rule:nonzero;fill:rgb(94.117647%,95.686275%,98.823529%);fill-opacity:1;" d="M 16.0625 10.152344 C 16.5625 10.378906 16.773438 10.851562 16.96875 11.339844 C 17.023438 11.515625 17.035156 11.65625 17.023438 11.839844 C 16.09375 12.285156 16.09375 12.285156 15.746094 12.164062 C 15.660156 12.121094 15.574219 12.078125 15.488281 12.03125 C 15.390625 11.996094 15.292969 11.957031 15.195312 11.925781 C 15.125 11.894531 15.050781 11.867188 14.976562 11.839844 C 14.996094 11.269531 15.230469 10.714844 15.648438 10.316406 C 15.800781 10.203125 15.867188 10.175781 16.0625 10.152344 Z M 16.0625 10.152344 "/>
<path style=" stroke:none;fill-rule:nonzero;fill:rgb(94.117647%,95.686275%,98.823529%);fill-opacity:1;" d="M 13.566406 14.078125 C 13.796875 14.117188 13.914062 14.207031 14.085938 14.363281 C 14.230469 14.496094 14.363281 14.609375 14.527344 14.71875 C 14.566406 14.839844 14.566406 14.839844 14.589844 14.984375 C 14.597656 15.035156 14.605469 15.085938 14.613281 15.140625 C 14.621094 15.195312 14.628906 15.25 14.636719 15.304688 C 14.648438 15.386719 14.648438 15.386719 14.660156 15.46875 C 14.679688 15.601562 14.699219 15.738281 14.71875 15.871094 C 14.195312 16.0625 13.601562 16.132812 13.054688 16 C 12.847656 15.847656 12.753906 15.757812 12.695312 15.507812 C 12.808594 14.921875 13.160156 14.5 13.566406 14.078125 Z M 13.566406 14.078125 "/>
<path style=" stroke:none;fill-rule:nonzero;fill:rgb(94.117647%,95.686275%,98.823529%);fill-opacity:1;" d="M 18.304688 14.078125 C 18.714844 14.242188 18.960938 14.691406 19.152344 15.074219 C 19.238281 15.300781 19.265625 15.457031 19.242188 15.703125 C 19.109375 15.914062 19.003906 15.964844 18.769531 16.035156 C 18.300781 16.128906 17.800781 16.066406 17.34375 15.9375 C 17.195312 15.640625 17.339844 15.160156 17.421875 14.847656 C 17.542969 14.53125 17.828125 14.367188 18.113281 14.207031 C 18.175781 14.164062 18.238281 14.125 18.304688 14.078125 Z M 18.304688 14.078125 "/>
<path style=" stroke:none;fill-rule:nonzero;fill:rgb(94.509804%,96.078431%,98.823529%);fill-opacity:1;" d="M 16.664062 15.84375 C 16.730469 15.875 16.800781 15.902344 16.871094 15.933594 C 16.921875 15.953125 16.972656 15.976562 17.023438 16 C 16.988281 16.289062 16.957031 16.566406 16.832031 16.832031 C 16.664062 16.921875 16.664062 16.921875 16.511719 16.960938 C 16.507812 17.03125 16.5 17.101562 16.496094 17.171875 C 16.449219 17.40625 16.449219 17.40625 16.339844 17.53125 C 16.140625 17.625 16.027344 17.636719 15.808594 17.601562 C 15.484375 17.375 15.332031 17.15625 15.175781 16.800781 C 15.15625 16.757812 15.136719 16.714844 15.117188 16.671875 C 15.011719 16.441406 14.953125 16.253906 14.976562 16 C 15.117188 15.933594 15.257812 15.867188 15.398438 15.804688 C 15.441406 15.785156 15.480469 15.765625 15.519531 15.746094 C 15.957031 15.550781 16.242188 15.660156 16.664062 15.84375 Z M 16.664062 15.84375 "/>
<path style=" stroke:none;fill-rule:nonzero;fill:rgb(94.117647%,95.686275%,98.823529%);fill-opacity:1;" d="M 18.496094 11.777344 C 18.757812 11.789062 19 11.847656 19.207031 12.007812 C 19.296875 12.242188 19.273438 12.4375 19.199219 12.671875 C 19.003906 13.082031 18.738281 13.425781 18.433594 13.761719 C 18.347656 13.71875 18.261719 13.675781 18.175781 13.632812 C 18.121094 13.605469 18.0625 13.574219 18.003906 13.546875 C 17.695312 13.359375 17.476562 13.207031 17.382812 12.847656 C 17.320312 12.539062 17.28125 12.222656 17.28125 11.902344 C 17.386719 11.890625 17.492188 11.878906 17.597656 11.867188 C 17.683594 11.859375 17.683594 11.859375 17.773438 11.847656 C 17.820312 11.84375 17.871094 11.84375 17.921875 11.839844 C 17.941406 11.859375 17.960938 11.882812 17.984375 11.902344 C 18.171875 11.921875 18.171875 11.921875 18.367188 11.902344 C 18.410156 11.863281 18.453125 11.820312 18.496094 11.777344 Z M 18.496094 11.777344 "/>
<path style=" stroke:none;fill-rule:nonzero;fill:rgb(94.117647%,95.686275%,98.823529%);fill-opacity:1;" d="M 14.65625 11.902344 C 14.648438 12.070312 14.636719 12.238281 14.628906 12.402344 C 14.625 12.453125 14.621094 12.5 14.621094 12.546875 C 14.609375 12.75 14.59375 12.925781 14.527344 13.121094 C 14.375 13.246094 14.375 13.246094 14.183594 13.378906 C 14.121094 13.425781 14.058594 13.46875 13.996094 13.515625 C 13.875 13.597656 13.753906 13.679688 13.632812 13.761719 C 13.203125 13.429688 13.203125 13.429688 13.152344 13.140625 C 13.15625 12.980469 13.164062 12.828125 13.183594 12.671875 C 12.992188 12.640625 12.992188 12.640625 12.800781 12.609375 C 12.746094 12.402344 12.746094 12.402344 12.734375 12.160156 C 13.214844 11.566406 13.984375 11.734375 14.65625 11.902344 Z M 14.65625 11.902344 "/>
<path style=" stroke:none;fill-rule:nonzero;fill:rgb(91.764706%,34.509804%,21.960784%);fill-opacity:1;" d="M 16.320312 13.183594 C 16.539062 13.316406 16.628906 13.421875 16.769531 13.632812 C 16.800781 13.964844 16.761719 14.183594 16.574219 14.464844 C 16.34375 14.667969 16.117188 14.691406 15.816406 14.683594 C 15.542969 14.628906 15.425781 14.429688 15.277344 14.214844 C 15.207031 14.007812 15.207031 13.851562 15.230469 13.632812 C 15.503906 13.175781 15.820312 13.125 16.320312 13.183594 Z M 16.320312 13.183594 "/>
<path style=" stroke:none;fill-rule:nonzero;fill:rgb(9.803922%,32.54902%,54.901961%);fill-opacity:1;" d="M 17.984375 11.328125 C 18.214844 11.351562 18.214844 11.351562 18.433594 11.390625 C 18.453125 11.457031 18.472656 11.519531 18.496094 11.585938 C 18.609375 11.589844 18.609375 11.589844 18.726562 11.597656 C 19.035156 11.632812 19.175781 11.75 19.390625 11.96875 C 19.503906 12.191406 19.441406 12.433594 19.390625 12.671875 C 19.296875 12.945312 19.21875 13.136719 18.960938 13.28125 C 18.890625 13.296875 18.890625 13.296875 18.816406 13.3125 C 18.882812 13.179688 18.945312 13.050781 19.015625 12.921875 C 19.132812 12.679688 19.199219 12.503906 19.210938 12.230469 C 19.152344 12.011719 19.152344 12.011719 18.925781 11.902344 C 18.667969 11.832031 18.667969 11.832031 18.433594 11.902344 C 18.410156 11.925781 18.390625 11.945312 18.367188 11.96875 C 18.179688 11.980469 18.179688 11.980469 17.984375 11.96875 C 17.855469 11.839844 17.855469 11.839844 17.839844 11.648438 C 17.855469 11.457031 17.855469 11.457031 17.984375 11.328125 Z M 17.984375 11.328125 "/>
<path style=" stroke:none;fill-rule:nonzero;fill:rgb(9.803922%,32.941176%,54.901961%);fill-opacity:1;" d="M 12.800781 14.910156 C 12.871094 15.152344 12.871094 15.152344 12.800781 15.296875 C 12.777344 15.515625 12.773438 15.636719 12.886719 15.828125 C 13.351562 16.128906 14.007812 15.988281 14.527344 15.9375 C 14.507812 16 14.484375 16.0625 14.464844 16.128906 C 13.992188 16.3125 13.394531 16.320312 12.917969 16.140625 C 12.726562 16.019531 12.625 15.886719 12.542969 15.679688 C 12.539062 15.535156 12.539062 15.535156 12.554688 15.386719 C 12.5625 15.339844 12.566406 15.289062 12.570312 15.238281 C 12.613281 15.082031 12.675781 15.015625 12.800781 14.910156 Z M 12.800781 14.910156 "/>
<path style=" stroke:none;fill-rule:nonzero;fill:rgb(91.764706%,94.117647%,97.647059%);fill-opacity:1;" d="M 17.472656 13.3125 C 17.597656 13.40625 17.726562 13.503906 17.851562 13.597656 C 17.957031 13.675781 18.066406 13.75 18.175781 13.824219 C 18.089844 14.027344 17.992188 14.148438 17.824219 14.289062 C 17.785156 14.320312 17.746094 14.355469 17.707031 14.390625 C 17.601562 14.464844 17.601562 14.464844 17.472656 14.464844 C 17.472656 14.082031 17.472656 13.703125 17.472656 13.3125 Z M 17.472656 13.3125 "/>
<path style=" stroke:none;fill-rule:nonzero;fill:rgb(91.764706%,93.72549%,97.647059%);fill-opacity:1;" d="M 14.527344 13.3125 C 14.527344 13.691406 14.527344 14.074219 14.527344 14.464844 C 14.324219 14.363281 14.199219 14.28125 14.03125 14.136719 C 13.992188 14.101562 13.953125 14.066406 13.914062 14.03125 C 13.882812 14.003906 13.855469 13.980469 13.824219 13.953125 C 13.902344 13.722656 13.984375 13.667969 14.175781 13.523438 C 14.226562 13.484375 14.28125 13.445312 14.335938 13.402344 C 14.464844 13.3125 14.464844 13.3125 14.527344 13.3125 Z M 14.527344 13.3125 "/>
<path style=" stroke:none;fill-rule:nonzero;fill:rgb(90.588235%,92.941176%,96.862745%);fill-opacity:1;" d="M 17.28125 14.910156 C 17.238281 15.207031 17.195312 15.503906 17.152344 15.808594 C 16.539062 15.6875 16.539062 15.6875 16.257812 15.488281 C 16.445312 15.34375 16.636719 15.214844 16.839844 15.09375 C 16.894531 15.058594 16.953125 15.023438 17.007812 14.988281 C 17.152344 14.910156 17.152344 14.910156 17.28125 14.910156 Z M 17.28125 14.910156 "/>
<path style=" stroke:none;fill-rule:nonzero;fill:rgb(90.980392%,93.333333%,97.254902%);fill-opacity:1;" d="M 14.785156 14.910156 C 15.101562 15.082031 15.417969 15.25 15.742188 15.425781 C 15.742188 15.464844 15.742188 15.507812 15.742188 15.550781 C 15.628906 15.59375 15.515625 15.636719 15.402344 15.679688 C 15.339844 15.703125 15.277344 15.726562 15.210938 15.753906 C 15.039062 15.808594 15.039062 15.808594 14.847656 15.808594 C 14.785156 15.496094 14.785156 15.246094 14.785156 14.910156 Z M 14.785156 14.910156 "/>
<path style=" stroke:none;fill-rule:nonzero;fill:rgb(90.980392%,93.333333%,97.254902%);fill-opacity:1;" d="M 17.152344 12.03125 C 17.207031 12.222656 17.222656 12.394531 17.21875 12.59375 C 17.21875 12.644531 17.21875 12.695312 17.21875 12.746094 C 17.21875 12.785156 17.214844 12.824219 17.214844 12.863281 C 16.980469 12.777344 16.769531 12.667969 16.554688 12.535156 C 16.5 12.5 16.441406 12.46875 16.382812 12.429688 C 16.34375 12.40625 16.300781 12.378906 16.257812 12.351562 C 16.386719 12.222656 16.464844 12.183594 16.632812 12.121094 C 16.695312 12.09375 16.695312 12.09375 16.761719 12.070312 C 16.894531 12.03125 16.894531 12.03125 17.152344 12.03125 Z M 17.152344 12.03125 "/>
<path style=" stroke:none;fill-rule:nonzero;fill:rgb(91.372549%,93.72549%,97.254902%);fill-opacity:1;" d="M 14.847656 12.03125 C 15.1875 12.066406 15.441406 12.144531 15.742188 12.289062 C 15.589844 12.457031 15.421875 12.566406 15.226562 12.683594 C 15.171875 12.71875 15.117188 12.75 15.058594 12.785156 C 14.910156 12.863281 14.910156 12.863281 14.785156 12.863281 C 14.78125 12.773438 14.78125 12.683594 14.78125 12.59375 C 14.777344 12.542969 14.777344 12.492188 14.777344 12.4375 C 14.785156 12.292969 14.808594 12.171875 14.847656 12.03125 Z M 14.847656 12.03125 "/>
<path style=" stroke:none;fill-rule:nonzero;fill:rgb(10.980392%,33.72549%,55.686275%);fill-opacity:1;" d="M 15.679688 10.046875 C 15.722656 10.070312 15.765625 10.089844 15.808594 10.113281 C 15.71875 10.261719 15.632812 10.410156 15.527344 10.550781 C 15.234375 10.953125 15.101562 11.363281 14.976562 11.839844 C 14.914062 11.796875 14.847656 11.753906 14.785156 11.710938 C 14.808594 11.140625 15.113281 10.601562 15.488281 10.175781 C 15.550781 10.132812 15.613281 10.089844 15.679688 10.046875 Z M 15.679688 10.046875 "/>
<path style=" stroke:none;fill-rule:nonzero;fill:rgb(91.372549%,35.686275%,23.137255%);fill-opacity:1;" d="M 13.183594 12.671875 C 13.269531 13.019531 13.269531 13.019531 13.175781 13.175781 C 13.015625 13.273438 12.921875 13.277344 12.734375 13.246094 C 12.617188 13.175781 12.617188 13.175781 12.542969 13.054688 C 12.554688 12.855469 12.554688 12.855469 12.609375 12.671875 C 12.804688 12.574219 12.972656 12.636719 13.183594 12.671875 Z M 13.183594 12.671875 "/>
<path style=" stroke:none;fill-rule:nonzero;fill:rgb(90.980392%,34.509804%,21.960784%);fill-opacity:1;" d="M 16.769531 16.816406 C 16.960938 16.832031 16.960938 16.832031 17.089844 16.960938 C 17.105469 17.152344 17.105469 17.152344 17.089844 17.34375 C 16.960938 17.472656 16.960938 17.472656 16.769531 17.488281 C 16.574219 17.472656 16.574219 17.472656 16.449219 17.34375 C 16.433594 17.152344 16.433594 17.152344 16.449219 16.960938 C 16.574219 16.832031 16.574219 16.832031 16.769531 16.816406 Z M 16.769531 16.816406 "/>
<path style=" stroke:none;fill-rule:nonzero;fill:rgb(91.764706%,34.509804%,21.960784%);fill-opacity:1;" d="M 17.984375 11.328125 C 18.40625 11.363281 18.40625 11.363281 18.496094 11.457031 C 18.507812 11.644531 18.507812 11.644531 18.496094 11.839844 C 18.367188 11.96875 18.367188 11.96875 18.175781 11.984375 C 17.984375 11.96875 17.984375 11.96875 17.855469 11.839844 C 17.839844 11.648438 17.839844 11.648438 17.855469 11.457031 C 17.898438 11.414062 17.941406 11.371094 17.984375 11.328125 Z M 17.984375 11.328125 "/>
<path style=" stroke:none;fill-rule:nonzero;fill:rgb(4.705882%,27.843137%,50.588235%);fill-opacity:1;" d="M 12.734375 11.96875 C 12.808594 12.191406 12.804688 12.375 12.800781 12.609375 C 12.738281 12.628906 12.671875 12.648438 12.609375 12.671875 C 12.609375 12.460938 12.609375 12.25 12.609375 12.03125 C 12.648438 12.011719 12.691406 11.988281 12.734375 11.96875 Z M 12.734375 11.96875 "/>
<path style=" stroke:none;fill-rule:nonzero;fill:rgb(7.843137%,31.372549%,53.72549%);fill-opacity:1;" d="M 15.230469 10.6875 C 15.253906 10.75 15.273438 10.816406 15.296875 10.878906 C 15.210938 11.019531 15.210938 11.019531 15.105469 11.136719 C 15.0625 11.136719 15.019531 11.136719 14.976562 11.136719 C 14.996094 10.984375 14.996094 10.984375 15.039062 10.816406 C 15.101562 10.773438 15.167969 10.730469 15.230469 10.6875 Z M 15.230469 10.6875 "/>
<path style=" stroke:none;fill-rule:nonzero;fill:rgb(3.921569%,28.627451%,52.156863%);fill-opacity:1;" d="M 13.054688 14.527344 C 13.078125 14.570312 13.097656 14.613281 13.121094 14.65625 C 13.039062 14.765625 12.953125 14.871094 12.863281 14.976562 C 12.820312 14.976562 12.78125 14.976562 12.734375 14.976562 C 12.761719 14.792969 12.785156 14.730469 12.933594 14.609375 C 12.972656 14.582031 13.015625 14.554688 13.054688 14.527344 Z M 13.054688 14.527344 "/>
</g>
</svg>
